mtllib materials.mtl
v 0.00000 0.00000 -0.84000
v 0.00000 0.72000 -0.72000
v -0.42000 0.00000 -0.72746
v -0.36000 0.72000 -0.62354
v -0.72746 0.00000 -0.42000
v -0.62354 0.72000 -0.36000
v -0.84000 0.00000 -0.00000
v -0.72000 0.72000 -0.00000
v -0.72746 0.00000 0.42000
v -0.62354 0.72000 0.36000
v -0.42000 0.00000 0.72746
v -0.36000 0.72000 0.62354
v -0.00000 0.00000 0.84000
v -0.00000 0.72000 0.72000
v 0.42000 0.00000 0.72746
v 0.36000 0.72000 0.62354
v 0.72746 0.00000 0.42000
v 0.62354 0.72000 0.36000
v 0.84000 0.00000 0.00000
v 0.72000 0.72000 0.00000
v 0.72746 0.00000 -0.42000
v 0.62354 0.72000 -0.36000
v 0.42000 0.00000 -0.72746
v 0.36000 0.72000 -0.62354
v 0.00000 0.00000 0.00000
v 0.00000 0.72000 0.00000
v 0.00000 0.62000 -0.22000
v 0.00000 2.75000 -0.11000
v -0.12931 0.62000 -0.17798
v -0.06466 2.75000 -0.08899
v -0.20923 0.62000 -0.06798
v -0.10462 2.75000 -0.03399
v -0.20923 0.62000 0.06798
v -0.10462 2.75000 0.03399
v -0.12931 0.62000 0.17798
v -0.06466 2.75000 0.08899
v -0.00000 0.62000 0.22000
v -0.00000 2.75000 0.11000
v 0.12931 0.62000 0.17798
v 0.06466 2.75000 0.08899
v 0.20923 0.62000 0.06798
v 0.10462 2.75000 0.03399
v 0.20923 0.62000 -0.06798
v 0.10462 2.75000 -0.03399
v 0.12931 0.62000 -0.17798
v 0.06466 2.75000 -0.08899
v 0.00000 0.62000 0.00000
v 0.00000 2.75000 0.00000
v 0.00000 3.40200 0.00000
v 0.00000 2.71800 0.00000
v 0.36000 3.06000 0.00000
v -0.36000 3.06000 0.00000
v 0.00000 3.06000 0.36000
v 0.00000 3.06000 -0.36000
v 0.30000 2.48000 0.08000
v 0.58000 3.04000 0.00500
v 0.36805 2.44597 0.02472
v 0.58425 3.03787 0.00155
v 0.34206 2.45897 -0.06472
v 0.58263 3.03869 -0.00405
v 0.25794 2.50103 -0.06472
v 0.57737 3.04131 -0.00405
v 0.23195 2.51403 0.02472
v 0.57575 3.04213 0.00155
v 0.30000 2.48000 0.00000
v 0.58000 3.04000 0.00000
v 0.08072 2.48000 0.29981
v 0.28567 3.04000 0.50479
v 0.16262 2.44597 0.33110
v 0.29079 3.03787 0.50675
v 0.22708 2.45897 0.26387
v 0.29482 3.03869 0.50255
v 0.18502 2.50103 0.19102
v 0.29219 3.04131 0.49800
v 0.09456 2.51403 0.21323
v 0.28654 3.04213 0.49938
v 0.15000 2.48000 0.25981
v 0.29000 3.04000 0.50229
v -0.21928 2.48000 0.21981
v -0.29433 3.04000 0.49979
v -0.20544 2.44597 0.30638
v -0.29346 3.03787 0.50521
v -0.11498 2.45897 0.32859
v -0.28781 3.03869 0.50659
v -0.07292 2.50103 0.25574
v -0.28518 3.04131 0.50204
v -0.13738 2.51403 0.18851
v -0.28921 3.04213 0.49784
v -0.15000 2.48000 0.25981
v -0.29000 3.04000 0.50229
v -0.30000 2.48000 -0.08000
v -0.58000 3.04000 -0.00500
v -0.36805 2.44597 -0.02472
v -0.58425 3.03787 -0.00155
v -0.34206 2.45897 0.06472
v -0.58263 3.03869 0.00405
v -0.25794 2.50103 0.06472
v -0.57737 3.04131 0.00405
v -0.23195 2.51403 -0.02472
v -0.57575 3.04213 -0.00155
v -0.30000 2.48000 0.00000
v -0.58000 3.04000 0.00000
v -0.08072 2.48000 -0.29981
v -0.28567 3.04000 -0.50479
v -0.16262 2.44597 -0.33110
v -0.29079 3.03787 -0.50675
v -0.22708 2.45897 -0.26387
v -0.29482 3.03869 -0.50255
v -0.18502 2.50103 -0.19102
v -0.29219 3.04131 -0.49800
v -0.09456 2.51403 -0.21323
v -0.28654 3.04213 -0.49938
v -0.15000 2.48000 -0.25981
v -0.29000 3.04000 -0.50229
v 0.21928 2.48000 -0.21981
v 0.29433 3.04000 -0.49979
v 0.20544 2.44597 -0.30638
v 0.29346 3.03787 -0.50521
v 0.11498 2.45897 -0.32859
v 0.28781 3.03869 -0.50659
v 0.07292 2.50103 -0.25574
v 0.28518 3.04131 -0.50204
v 0.13738 2.51403 -0.18851
v 0.28921 3.04213 -0.49784
v 0.15000 2.48000 -0.25981
v 0.29000 3.04000 -0.50229
usemtl ROCK
f 1 3 4
f 1 4 2
f 25 3 1
f 26 2 4
f 3 5 6
f 3 6 4
f 25 5 3
f 26 4 6
f 5 7 8
f 5 8 6
f 25 7 5
f 26 6 8
f 7 9 10
f 7 10 8
f 25 9 7
f 26 8 10
f 9 11 12
f 9 12 10
f 25 11 9
f 26 10 12
f 11 13 14
f 11 14 12
f 25 13 11
f 26 12 14
f 13 15 16
f 13 16 14
f 25 15 13
f 26 14 16
f 15 17 18
f 15 18 16
f 25 17 15
f 26 16 18
f 17 19 20
f 17 20 18
f 25 19 17
f 26 18 20
f 19 21 22
f 19 22 20
f 25 21 19
f 26 20 22
f 21 23 24
f 21 24 22
f 25 23 21
f 26 22 24
f 23 1 2
f 23 2 24
f 25 1 23
f 26 24 2
usemtl METAL
f 27 29 30
f 27 30 28
f 47 29 27
f 48 28 30
f 29 31 32
f 29 32 30
f 47 31 29
f 48 30 32
f 31 33 34
f 31 34 32
f 47 33 31
f 48 32 34
f 33 35 36
f 33 36 34
f 47 35 33
f 48 34 36
f 35 37 38
f 35 38 36
f 47 37 35
f 48 36 38
f 37 39 40
f 37 40 38
f 47 39 37
f 48 38 40
f 39 41 42
f 39 42 40
f 47 41 39
f 48 40 42
f 41 43 44
f 41 44 42
f 47 43 41
f 48 42 44
f 43 45 46
f 43 46 44
f 47 45 43
f 48 44 46
f 45 27 28
f 45 28 46
f 47 27 45
f 48 46 28
usemtl WARM
f 49 51 53
f 49 53 52
f 49 52 54
f 49 54 51
f 50 53 51
f 50 52 53
f 50 54 52
f 50 51 54
usemtl ICE
f 55 57 58
f 55 58 56
f 65 57 55
f 66 56 58
f 57 59 60
f 57 60 58
f 65 59 57
f 66 58 60
f 59 61 62
f 59 62 60
f 65 61 59
f 66 60 62
f 61 63 64
f 61 64 62
f 65 63 61
f 66 62 64
f 63 55 56
f 63 56 64
f 65 55 63
f 66 64 56
f 67 69 70
f 67 70 68
f 77 69 67
f 78 68 70
f 69 71 72
f 69 72 70
f 77 71 69
f 78 70 72
f 71 73 74
f 71 74 72
f 77 73 71
f 78 72 74
f 73 75 76
f 73 76 74
f 77 75 73
f 78 74 76
f 75 67 68
f 75 68 76
f 77 67 75
f 78 76 68
f 79 81 82
f 79 82 80
f 89 81 79
f 90 80 82
f 81 83 84
f 81 84 82
f 89 83 81
f 90 82 84
f 83 85 86
f 83 86 84
f 89 85 83
f 90 84 86
f 85 87 88
f 85 88 86
f 89 87 85
f 90 86 88
f 87 79 80
f 87 80 88
f 89 79 87
f 90 88 80
f 91 93 94
f 91 94 92
f 101 93 91
f 102 92 94
f 93 95 96
f 93 96 94
f 101 95 93
f 102 94 96
f 95 97 98
f 95 98 96
f 101 97 95
f 102 96 98
f 97 99 100
f 97 100 98
f 101 99 97
f 102 98 100
f 99 91 92
f 99 92 100
f 101 91 99
f 102 100 92
f 103 105 106
f 103 106 104
f 113 105 103
f 114 104 106
f 105 107 108
f 105 108 106
f 113 107 105
f 114 106 108
f 107 109 110
f 107 110 108
f 113 109 107
f 114 108 110
f 109 111 112
f 109 112 110
f 113 111 109
f 114 110 112
f 111 103 104
f 111 104 112
f 113 103 111
f 114 112 104
f 115 117 118
f 115 118 116
f 125 117 115
f 126 116 118
f 117 119 120
f 117 120 118
f 125 119 117
f 126 118 120
f 119 121 122
f 119 122 120
f 125 121 119
f 126 120 122
f 121 123 124
f 121 124 122
f 125 123 121
f 126 122 124
f 123 115 116
f 123 116 124
f 125 115 123
f 126 124 116
