mtllib materials.mtl
v 0.00000 1.39520 0.00000
v 0.00000 0.36480 0.00000
v 0.46000 0.88000 0.00000
v -0.46000 0.88000 0.00000
v 0.00000 0.88000 0.46000
v 0.00000 0.88000 -0.46000
v 0.00000 1.03600 -0.40000
v 0.00000 0.76400 -0.40000
v 0.16000 0.90000 -0.40000
v -0.16000 0.90000 -0.40000
v 0.00000 0.90000 -0.24000
v 0.00000 0.90000 -0.56000
v 0.32000 0.72000 0.07500
v 0.75000 0.40000 0.06000
v 0.28499 0.67296 0.04676
v 0.72199 0.36237 0.03741
v 0.27635 0.66134 -0.01669
v 0.71508 0.35307 -0.01335
v 0.30057 0.69389 -0.06757
v 0.73446 0.37912 -0.05406
v 0.33943 0.74611 -0.06757
v 0.76554 0.42088 -0.05406
v 0.36365 0.77866 -0.01669
v 0.78492 0.44693 -0.01335
v 0.35501 0.76704 0.04676
v 0.77801 0.43763 0.03741
v 0.32000 0.72000 0.00000
v 0.75000 0.40000 0.00000
v 0.75000 0.40000 0.06500
v 1.08000 0.10000 0.05000
v 0.71582 0.36240 0.04053
v 1.05370 0.07107 0.03117
v 0.70737 0.35311 -0.01446
v 1.04721 0.06393 -0.01113
v 0.73103 0.37913 -0.05856
v 1.06541 0.08395 -0.04505
v 0.76897 0.42087 -0.05856
v 1.09459 0.11605 -0.04505
v 0.79263 0.44689 -0.01446
v 1.11279 0.13607 -0.01113
v 0.78418 0.43760 0.04053
v 1.10630 0.12893 0.03117
v 0.75000 0.40000 0.00000
v 1.08000 0.10000 0.00000
v 0.94000 0.05000 -0.10000
v 1.22000 0.05000 -0.10000
v 1.22000 0.15000 -0.10000
v 0.94000 0.15000 -0.10000
v 0.94000 0.05000 0.10000
v 1.22000 0.05000 0.10000
v 1.22000 0.15000 0.10000
v 0.94000 0.15000 0.10000
v -0.07500 0.72000 0.32000
v -0.06000 0.40000 0.75000
v -0.04676 0.67296 0.28499
v -0.03741 0.36237 0.72199
v 0.01669 0.66134 0.27635
v 0.01335 0.35307 0.71508
v 0.06757 0.69389 0.30057
v 0.05406 0.37912 0.73446
v 0.06757 0.74611 0.33943
v 0.05406 0.42088 0.76554
v 0.01669 0.77866 0.36365
v 0.01335 0.44693 0.78492
v -0.04676 0.76704 0.35501
v -0.03741 0.43763 0.77801
v 0.00000 0.72000 0.32000
v 0.00000 0.40000 0.75000
v -0.06500 0.40000 0.75000
v -0.05000 0.10000 1.08000
v -0.04053 0.36240 0.71582
v -0.03117 0.07107 1.05370
v 0.01446 0.35311 0.70737
v 0.01113 0.06393 1.04721
v 0.05856 0.37913 0.73103
v 0.04505 0.08395 1.06541
v 0.05856 0.42087 0.76897
v 0.04505 0.11605 1.09459
v 0.01446 0.44689 0.79263
v 0.01113 0.13607 1.11279
v -0.04053 0.43760 0.78418
v -0.03117 0.12893 1.10630
v 0.00000 0.40000 0.75000
v 0.00000 0.10000 1.08000
v -0.14000 0.05000 0.98000
v 0.14000 0.05000 0.98000
v 0.14000 0.15000 0.98000
v -0.14000 0.15000 0.98000
v -0.14000 0.05000 1.18000
v 0.14000 0.05000 1.18000
v 0.14000 0.15000 1.18000
v -0.14000 0.15000 1.18000
v -0.32000 0.72000 -0.07500
v -0.75000 0.40000 -0.06000
v -0.28499 0.67296 -0.04676
v -0.72199 0.36237 -0.03741
v -0.27635 0.66134 0.01669
v -0.71508 0.35307 0.01335
v -0.30057 0.69389 0.06757
v -0.73446 0.37912 0.05406
v -0.33943 0.74611 0.06757
v -0.76554 0.42088 0.05406
v -0.36365 0.77866 0.01669
v -0.78492 0.44693 0.01335
v -0.35501 0.76704 -0.04676
v -0.77801 0.43763 -0.03741
v -0.32000 0.72000 0.00000
v -0.75000 0.40000 0.00000
v -0.75000 0.40000 -0.06500
v -1.08000 0.10000 -0.05000
v -0.71582 0.36240 -0.04053
v -1.05370 0.07107 -0.03117
v -0.70737 0.35311 0.01446
v -1.04721 0.06393 0.01113
v -0.73103 0.37913 0.05856
v -1.06541 0.08395 0.04505
v -0.76897 0.42087 0.05856
v -1.09459 0.11605 0.04505
v -0.79263 0.44689 0.01446
v -1.11279 0.13607 0.01113
v -0.78418 0.43760 -0.04053
v -1.10630 0.12893 -0.03117
v -0.75000 0.40000 0.00000
v -1.08000 0.10000 0.00000
v -1.22000 0.05000 -0.10000
v -0.94000 0.05000 -0.10000
v -0.94000 0.15000 -0.10000
v -1.22000 0.15000 -0.10000
v -1.22000 0.05000 0.10000
v -0.94000 0.05000 0.10000
v -0.94000 0.15000 0.10000
v -1.22000 0.15000 0.10000
v 0.07500 0.72000 -0.32000
v 0.06000 0.40000 -0.75000
v 0.04676 0.67296 -0.28499
v 0.03741 0.36237 -0.72199
v -0.01669 0.66134 -0.27635
v -0.01335 0.35307 -0.71508
v -0.06757 0.69389 -0.30057
v -0.05406 0.37912 -0.73446
v -0.06757 0.74611 -0.33943
v -0.05406 0.42088 -0.76554
v -0.01669 0.77866 -0.36365
v -0.01335 0.44693 -0.78492
v 0.04676 0.76704 -0.35501
v 0.03741 0.43763 -0.77801
v -0.00000 0.72000 -0.32000
v -0.00000 0.40000 -0.75000
v 0.06500 0.40000 -0.75000
v 0.05000 0.10000 -1.08000
v 0.04053 0.36240 -0.71582
v 0.03117 0.07107 -1.05370
v -0.01446 0.35311 -0.70737
v -0.01113 0.06393 -1.04721
v -0.05856 0.37913 -0.73103
v -0.04505 0.08395 -1.06541
v -0.05856 0.42087 -0.76897
v -0.04505 0.11605 -1.09459
v -0.01446 0.44689 -0.79263
v -0.01113 0.13607 -1.11279
v 0.04053 0.43760 -0.78418
v 0.03117 0.12893 -1.10630
v -0.00000 0.40000 -0.75000
v -0.00000 0.10000 -1.08000
v -0.14000 0.05000 -1.18000
v 0.14000 0.05000 -1.18000
v 0.14000 0.15000 -1.18000
v -0.14000 0.15000 -1.18000
v -0.14000 0.05000 -0.98000
v 0.14000 0.05000 -0.98000
v 0.14000 0.15000 -0.98000
v -0.14000 0.15000 -0.98000
v 0.28000 1.14000 -0.06500
v 0.38000 1.70000 -0.00500
v 0.21914 1.15087 -0.02009
v 0.37532 1.70084 -0.00155
v 0.24239 1.14672 0.05259
v 0.37711 1.70052 0.00405
v 0.31761 1.13328 0.05259
v 0.38289 1.69948 0.00405
v 0.34086 1.12913 -0.02009
v 0.38468 1.69916 -0.00155
v 0.28000 1.14000 0.00000
v 0.38000 1.70000 0.00000
v 0.08652 1.15088 0.20221
v 0.11743 1.70084 0.35647
v 0.02480 1.14667 0.24706
v 0.11268 1.70051 0.35992
v 0.04838 1.13324 0.31849
v 0.11449 1.69948 0.36542
v 0.12467 1.12915 0.31779
v 0.12036 1.69917 0.36536
v 0.14825 1.14005 0.24593
v 0.12217 1.70000 0.35983
v 0.08652 1.14000 0.26630
v 0.11743 1.70000 0.36140
v -0.22652 1.14679 0.09993
v -0.30743 1.70052 0.21839
v -0.28772 1.13335 0.14369
v -0.31213 1.69949 0.22175
v -0.26434 1.12911 0.21631
v -0.31034 1.69916 0.22734
v -0.18871 1.13991 0.21745
v -0.30452 1.69999 0.22743
v -0.16533 1.15084 0.14552
v -0.30272 1.70083 0.22189
v -0.22652 1.14000 0.16458
v -0.30743 1.70000 0.22336
v -0.22652 1.13321 -0.22922
v -0.30743 1.69948 -0.22833
v -0.28772 1.12916 -0.18364
v -0.31213 1.69917 -0.22482
v -0.26434 1.14009 -0.11171
v -0.31034 1.70001 -0.21929
v -0.18871 1.15089 -0.11285
v -0.30452 1.70084 -0.21938
v -0.16533 1.14665 -0.18547
v -0.30272 1.70051 -0.22497
v -0.22652 1.14000 -0.16458
v -0.30743 1.70000 -0.22336
v 0.08652 1.12912 -0.33038
v 0.11743 1.69916 -0.36633
v 0.02480 1.13995 -0.28666
v 0.11268 1.70000 -0.36297
v 0.04838 1.15085 -0.21480
v 0.11449 1.70083 -0.35744
v 0.12467 1.14676 -0.21410
v 0.12036 1.70052 -0.35739
v 0.14825 1.13333 -0.28554
v 0.12217 1.69949 -0.36288
v 0.08652 1.14000 -0.26630
v 0.11743 1.70000 -0.36140
usemtl ROCK
f 1 3 5
f 1 5 4
f 1 4 6
f 1 6 3
f 2 5 3
f 2 4 5
f 2 6 4
f 2 3 6
usemtl ICE
f 7 9 11
f 7 11 10
f 7 10 12
f 7 12 9
f 8 11 9
f 8 10 11
f 8 12 10
f 8 9 12
usemtl METAL
f 13 15 16
f 13 16 14
f 27 15 13
f 28 14 16
f 15 17 18
f 15 18 16
f 27 17 15
f 28 16 18
f 17 19 20
f 17 20 18
f 27 19 17
f 28 18 20
f 19 21 22
f 19 22 20
f 27 21 19
f 28 20 22
f 21 23 24
f 21 24 22
f 27 23 21
f 28 22 24
f 23 25 26
f 23 26 24
f 27 25 23
f 28 24 26
f 25 13 14
f 25 14 26
f 27 13 25
f 28 26 14
f 29 31 32
f 29 32 30
f 43 31 29
f 44 30 32
f 31 33 34
f 31 34 32
f 43 33 31
f 44 32 34
f 33 35 36
f 33 36 34
f 43 35 33
f 44 34 36
f 35 37 38
f 35 38 36
f 43 37 35
f 44 36 38
f 37 39 40
f 37 40 38
f 43 39 37
f 44 38 40
f 39 41 42
f 39 42 40
f 43 41 39
f 44 40 42
f 41 29 30
f 41 30 42
f 43 29 41
f 44 42 30
usemtl ROCK
f 45 46 47
f 45 47 48
f 50 49 52
f 50 52 51
f 49 45 48
f 49 48 52
f 46 50 51
f 46 51 47
f 48 47 51
f 48 51 52
f 49 50 46
f 49 46 45
usemtl METAL
f 53 55 56
f 53 56 54
f 67 55 53
f 68 54 56
f 55 57 58
f 55 58 56
f 67 57 55
f 68 56 58
f 57 59 60
f 57 60 58
f 67 59 57
f 68 58 60
f 59 61 62
f 59 62 60
f 67 61 59
f 68 60 62
f 61 63 64
f 61 64 62
f 67 63 61
f 68 62 64
f 63 65 66
f 63 66 64
f 67 65 63
f 68 64 66
f 65 53 54
f 65 54 66
f 67 53 65
f 68 66 54
f 69 71 72
f 69 72 70
f 83 71 69
f 84 70 72
f 71 73 74
f 71 74 72
f 83 73 71
f 84 72 74
f 73 75 76
f 73 76 74
f 83 75 73
f 84 74 76
f 75 77 78
f 75 78 76
f 83 77 75
f 84 76 78
f 77 79 80
f 77 80 78
f 83 79 77
f 84 78 80
f 79 81 82
f 79 82 80
f 83 81 79
f 84 80 82
f 81 69 70
f 81 70 82
f 83 69 81
f 84 82 70
usemtl ROCK
f 85 86 87
f 85 87 88
f 90 89 92
f 90 92 91
f 89 85 88
f 89 88 92
f 86 90 91
f 86 91 87
f 88 87 91
f 88 91 92
f 89 90 86
f 89 86 85
usemtl METAL
f 93 95 96
f 93 96 94
f 107 95 93
f 108 94 96
f 95 97 98
f 95 98 96
f 107 97 95
f 108 96 98
f 97 99 100
f 97 100 98
f 107 99 97
f 108 98 100
f 99 101 102
f 99 102 100
f 107 101 99
f 108 100 102
f 101 103 104
f 101 104 102
f 107 103 101
f 108 102 104
f 103 105 106
f 103 106 104
f 107 105 103
f 108 104 106
f 105 93 94
f 105 94 106
f 107 93 105
f 108 106 94
f 109 111 112
f 109 112 110
f 123 111 109
f 124 110 112
f 111 113 114
f 111 114 112
f 123 113 111
f 124 112 114
f 113 115 116
f 113 116 114
f 123 115 113
f 124 114 116
f 115 117 118
f 115 118 116
f 123 117 115
f 124 116 118
f 117 119 120
f 117 120 118
f 123 119 117
f 124 118 120
f 119 121 122
f 119 122 120
f 123 121 119
f 124 120 122
f 121 109 110
f 121 110 122
f 123 109 121
f 124 122 110
usemtl ROCK
f 125 126 127
f 125 127 128
f 130 129 132
f 130 132 131
f 129 125 128
f 129 128 132
f 126 130 131
f 126 131 127
f 128 127 131
f 128 131 132
f 129 130 126
f 129 126 125
usemtl METAL
f 133 135 136
f 133 136 134
f 147 135 133
f 148 134 136
f 135 137 138
f 135 138 136
f 147 137 135
f 148 136 138
f 137 139 140
f 137 140 138
f 147 139 137
f 148 138 140
f 139 141 142
f 139 142 140
f 147 141 139
f 148 140 142
f 141 143 144
f 141 144 142
f 147 143 141
f 148 142 144
f 143 145 146
f 143 146 144
f 147 145 143
f 148 144 146
f 145 133 134
f 145 134 146
f 147 133 145
f 148 146 134
f 149 151 152
f 149 152 150
f 163 151 149
f 164 150 152
f 151 153 154
f 151 154 152
f 163 153 151
f 164 152 154
f 153 155 156
f 153 156 154
f 163 155 153
f 164 154 156
f 155 157 158
f 155 158 156
f 163 157 155
f 164 156 158
f 157 159 160
f 157 160 158
f 163 159 157
f 164 158 160
f 159 161 162
f 159 162 160
f 163 161 159
f 164 160 162
f 161 149 150
f 161 150 162
f 163 149 161
f 164 162 150
usemtl ROCK
f 165 166 167
f 165 167 168
f 170 169 172
f 170 172 171
f 169 165 168
f 169 168 172
f 166 170 171
f 166 171 167
f 168 167 171
f 168 171 172
f 169 170 166
f 169 166 165
usemtl ICE
f 173 175 176
f 173 176 174
f 183 175 173
f 184 174 176
f 175 177 178
f 175 178 176
f 183 177 175
f 184 176 178
f 177 179 180
f 177 180 178
f 183 179 177
f 184 178 180
f 179 181 182
f 179 182 180
f 183 181 179
f 184 180 182
f 181 173 174
f 181 174 182
f 183 173 181
f 184 182 174
f 185 187 188
f 185 188 186
f 195 187 185
f 196 186 188
f 187 189 190
f 187 190 188
f 195 189 187
f 196 188 190
f 189 191 192
f 189 192 190
f 195 191 189
f 196 190 192
f 191 193 194
f 191 194 192
f 195 193 191
f 196 192 194
f 193 185 186
f 193 186 194
f 195 185 193
f 196 194 186
f 197 199 200
f 197 200 198
f 207 199 197
f 208 198 200
f 199 201 202
f 199 202 200
f 207 201 199
f 208 200 202
f 201 203 204
f 201 204 202
f 207 203 201
f 208 202 204
f 203 205 206
f 203 206 204
f 207 205 203
f 208 204 206
f 205 197 198
f 205 198 206
f 207 197 205
f 208 206 198
f 209 211 212
f 209 212 210
f 219 211 209
f 220 210 212
f 211 213 214
f 211 214 212
f 219 213 211
f 220 212 214
f 213 215 216
f 213 216 214
f 219 215 213
f 220 214 216
f 215 217 218
f 215 218 216
f 219 217 215
f 220 216 218
f 217 209 210
f 217 210 218
f 219 209 217
f 220 218 210
f 221 223 224
f 221 224 222
f 231 223 221
f 232 222 224
f 223 225 226
f 223 226 224
f 231 225 223
f 232 224 226
f 225 227 228
f 225 228 226
f 231 227 225
f 232 226 228
f 227 229 230
f 227 230 228
f 231 229 227
f 232 228 230
f 229 221 222
f 229 222 230
f 231 221 229
f 232 230 222
