mtllib materials.mtl
v 0.19000 0.00000 0.17000
v 0.16000 0.00000 -0.18000
v 0.16454 -0.09500 0.17000
v 0.13856 -0.08000 -0.18000
v 0.09500 -0.16454 0.17000
v 0.08000 -0.13856 -0.18000
v 0.00000 -0.19000 0.17000
v 0.00000 -0.16000 -0.18000
v -0.09500 -0.16454 0.17000
v -0.08000 -0.13856 -0.18000
v -0.16454 -0.09500 0.17000
v -0.13856 -0.08000 -0.18000
v -0.19000 -0.00000 0.17000
v -0.16000 -0.00000 -0.18000
v -0.16454 0.09500 0.17000
v -0.13856 0.08000 -0.18000
v -0.09500 0.16454 0.17000
v -0.08000 0.13856 -0.18000
v -0.00000 0.19000 0.17000
v -0.00000 0.16000 -0.18000
v 0.09500 0.16454 0.17000
v 0.08000 0.13856 -0.18000
v 0.16454 0.09500 0.17000
v 0.13856 0.08000 -0.18000
v 0.00000 0.00000 0.17000
v 0.00000 0.00000 -0.18000
v 0.18000 0.05184 -0.21000
v 0.18000 -0.05184 -0.21000
v 0.25200 0.00000 -0.21000
v 0.10800 0.00000 -0.21000
v 0.18000 0.00000 -0.13800
v 0.18000 0.00000 -0.28200
v 0.16217 0.12994 -0.21000
v 0.16217 0.02626 -0.21000
v 0.23417 0.07810 -0.21000
v 0.09017 0.07810 -0.21000
v 0.16217 0.07810 -0.13800
v 0.16217 0.07810 -0.28200
v 0.11223 0.19257 -0.21000
v 0.11223 0.08889 -0.21000
v 0.18423 0.14073 -0.21000
v 0.04023 0.14073 -0.21000
v 0.11223 0.14073 -0.13800
v 0.11223 0.14073 -0.28200
v 0.04005 0.22733 -0.21000
v 0.04005 0.12365 -0.21000
v 0.11205 0.17549 -0.21000
v -0.03195 0.17549 -0.21000
v 0.04005 0.17549 -0.13800
v 0.04005 0.17549 -0.28200
v -0.04005 0.22733 -0.21000
v -0.04005 0.12365 -0.21000
v 0.03195 0.17549 -0.21000
v -0.11205 0.17549 -0.21000
v -0.04005 0.17549 -0.13800
v -0.04005 0.17549 -0.28200
v -0.11223 0.19257 -0.21000
v -0.11223 0.08889 -0.21000
v -0.04023 0.14073 -0.21000
v -0.18423 0.14073 -0.21000
v -0.11223 0.14073 -0.13800
v -0.11223 0.14073 -0.28200
v -0.16217 0.12994 -0.21000
v -0.16217 0.02626 -0.21000
v -0.09017 0.07810 -0.21000
v -0.23417 0.07810 -0.21000
v -0.16217 0.07810 -0.13800
v -0.16217 0.07810 -0.28200
v -0.18000 0.05184 -0.21000
v -0.18000 -0.05184 -0.21000
v -0.10800 0.00000 -0.21000
v -0.25200 0.00000 -0.21000
v -0.18000 0.00000 -0.13800
v -0.18000 0.00000 -0.28200
v -0.16217 -0.02626 -0.21000
v -0.16217 -0.12994 -0.21000
v -0.09017 -0.07810 -0.21000
v -0.23417 -0.07810 -0.21000
v -0.16217 -0.07810 -0.13800
v -0.16217 -0.07810 -0.28200
v -0.11223 -0.08889 -0.21000
v -0.11223 -0.19257 -0.21000
v -0.04023 -0.14073 -0.21000
v -0.18423 -0.14073 -0.21000
v -0.11223 -0.14073 -0.13800
v -0.11223 -0.14073 -0.28200
v -0.04005 -0.12365 -0.21000
v -0.04005 -0.22733 -0.21000
v 0.03195 -0.17549 -0.21000
v -0.11205 -0.17549 -0.21000
v -0.04005 -0.17549 -0.13800
v -0.04005 -0.17549 -0.28200
v 0.04005 -0.12365 -0.21000
v 0.04005 -0.22733 -0.21000
v 0.11205 -0.17549 -0.21000
v -0.03195 -0.17549 -0.21000
v 0.04005 -0.17549 -0.13800
v 0.04005 -0.17549 -0.28200
v 0.11223 -0.08889 -0.21000
v 0.11223 -0.19257 -0.21000
v 0.18423 -0.14073 -0.21000
v 0.04023 -0.14073 -0.21000
v 0.11223 -0.14073 -0.13800
v 0.11223 -0.14073 -0.28200
v 0.16217 -0.02626 -0.21000
v 0.16217 -0.12994 -0.21000
v 0.23417 -0.07810 -0.21000
v 0.09017 -0.07810 -0.21000
v 0.16217 -0.07810 -0.13800
v 0.16217 -0.07810 -0.28200
v 0.17000 0.00000 -0.22000
v 0.11500 -0.01000 -0.66000
v 0.13753 -0.09990 -0.21773
v 0.09304 -0.07758 -0.65846
v 0.05253 -0.16164 -0.21633
v 0.03554 -0.11934 -0.65751
v -0.05253 -0.16164 -0.21633
v -0.03554 -0.11934 -0.65751
v -0.13753 -0.09990 -0.21773
v -0.09304 -0.07758 -0.65846
v -0.17000 -0.00000 -0.22000
v -0.11500 -0.01000 -0.66000
v -0.13753 0.09990 -0.22227
v -0.09304 0.05758 -0.66154
v -0.05253 0.16164 -0.22367
v -0.03554 0.09934 -0.66249
v 0.05253 0.16164 -0.22367
v 0.03554 0.09934 -0.66249
v 0.13753 0.09990 -0.22227
v 0.09304 0.05758 -0.66154
v 0.00000 0.00000 -0.22000
v 0.00000 -0.01000 -0.66000
v -0.17000 -0.10000 -0.95000
v 0.17000 -0.10000 -0.95000
v 0.17000 0.10000 -0.95000
v -0.17000 0.10000 -0.95000
v -0.17000 -0.10000 -0.61000
v 0.17000 -0.10000 -0.61000
v 0.17000 0.10000 -0.61000
v -0.17000 0.10000 -0.61000
v -0.12000 0.14084 -0.95000
v -0.12000 0.01916 -0.95000
v -0.04200 0.08000 -0.95000
v -0.19800 0.08000 -0.95000
v -0.12000 0.08000 -0.87200
v -0.12000 0.08000 -1.02800
v -0.04000 0.14084 -0.95000
v -0.04000 0.01916 -0.95000
v 0.03800 0.08000 -0.95000
v -0.11800 0.08000 -0.95000
v -0.04000 0.08000 -0.87200
v -0.04000 0.08000 -1.02800
v 0.04000 0.14084 -0.95000
v 0.04000 0.01916 -0.95000
v 0.11800 0.08000 -0.95000
v -0.03800 0.08000 -0.95000
v 0.04000 0.08000 -0.87200
v 0.04000 0.08000 -1.02800
v 0.12000 0.14084 -0.95000
v 0.12000 0.01916 -0.95000
v 0.19800 0.08000 -0.95000
v 0.04200 0.08000 -0.95000
v 0.12000 0.08000 -0.87200
v 0.12000 0.08000 -1.02800
v -0.09503 0.03000 -0.94167
v -0.15100 0.07000 -1.37019
v -0.11765 -0.00880 -0.94444
v -0.15352 0.06569 -1.37049
v -0.16262 -0.00880 -0.94277
v -0.15851 0.06569 -1.37031
v -0.18497 0.03000 -0.93833
v -0.16100 0.07000 -1.36981
v -0.16235 0.06880 -0.93556
v -0.15848 0.07431 -1.36951
v -0.11738 0.06880 -0.93723
v -0.15349 0.07431 -1.36969
v -0.14000 0.03000 -0.94000
v -0.15600 0.07000 -1.37000
v -0.02501 0.03000 -0.94091
v -0.07300 0.07000 -1.33510
v -0.04758 -0.00877 -0.94438
v -0.07551 0.06569 -1.33549
v -0.09257 -0.00877 -0.94347
v -0.08051 0.06569 -1.33539
v -0.11499 0.03000 -0.93909
v -0.08300 0.07000 -1.33490
v -0.09242 0.06877 -0.93562
v -0.08049 0.07431 -1.33451
v -0.04743 0.06877 -0.93653
v -0.07549 0.07431 -1.33461
v -0.07000 0.03000 -0.94000
v -0.07800 0.07000 -1.33500
v 0.04500 0.03000 -0.94000
v 0.00500 0.07000 -1.30000
v 0.02250 -0.00873 -0.94430
v 0.00250 0.06570 -1.30048
v -0.02250 -0.00873 -0.94430
v -0.00250 0.06570 -1.30048
v -0.04500 0.03000 -0.94000
v -0.00500 0.07000 -1.30000
v -0.02250 0.06873 -0.93570
v -0.00250 0.07430 -1.29952
v 0.02250 0.06873 -0.93570
v 0.00250 0.07430 -1.29952
v 0.00000 0.03000 -0.94000
v 0.00000 0.07000 -1.30000
v 0.11499 0.03000 -0.93909
v 0.08300 0.07000 -1.33490
v 0.09257 -0.00877 -0.94347
v 0.08051 0.06569 -1.33539
v 0.04758 -0.00877 -0.94438
v 0.07551 0.06569 -1.33549
v 0.02501 0.03000 -0.94091
v 0.07300 0.07000 -1.33510
v 0.04743 0.06877 -0.93653
v 0.07549 0.07431 -1.33461
v 0.09242 0.06877 -0.93562
v 0.08049 0.07431 -1.33451
v 0.07000 0.03000 -0.94000
v 0.07800 0.07000 -1.33500
v 0.18497 0.03000 -0.93833
v 0.16100 0.07000 -1.36981
v 0.16262 -0.00880 -0.94277
v 0.15851 0.06569 -1.37031
v 0.11765 -0.00880 -0.94444
v 0.15352 0.06569 -1.37049
v 0.09503 0.03000 -0.94167
v 0.15100 0.07000 -1.37019
v 0.11738 0.06880 -0.93723
v 0.15349 0.07431 -1.36969
v 0.16235 0.06880 -0.93556
v 0.15848 0.07431 -1.36951
v 0.14000 0.03000 -0.94000
v 0.15600 0.07000 -1.37000
v -0.13000 0.11420 -0.47268
v -0.13000 0.32856 -0.48479
v -0.18231 0.12512 -0.43628
v -0.13476 0.32956 -0.48148
v -0.16233 0.14279 -0.37738
v -0.13294 0.33116 -0.47613
v -0.09767 0.14279 -0.37738
v -0.12706 0.33116 -0.47613
v -0.07769 0.12512 -0.43628
v -0.12524 0.32956 -0.48148
v -0.13000 0.13000 -0.42000
v -0.13000 0.33000 -0.48000
v -0.06500 0.11084 -0.54474
v -0.06500 0.32835 -0.56472
v -0.12016 0.12408 -0.50692
v -0.06976 0.32949 -0.56146
v -0.09909 0.14550 -0.44571
v -0.06794 0.33134 -0.55618
v -0.03091 0.14550 -0.44571
v -0.06206 0.33134 -0.55618
v -0.00984 0.12408 -0.50692
v -0.06024 0.32949 -0.56146
v -0.06500 0.13000 -0.49000
v -0.06500 0.33000 -0.56000
v 0.00000 0.10735 -0.61664
v 0.00000 0.32814 -0.64464
v -0.05801 0.12300 -0.57750
v -0.00476 0.32943 -0.64143
v -0.03585 0.14833 -0.51418
v -0.00294 0.33150 -0.63624
v 0.03585 0.14833 -0.51418
v 0.00294 0.33150 -0.63624
v 0.05801 0.12300 -0.57750
v 0.00476 0.32943 -0.64143
v 0.00000 0.13000 -0.56000
v 0.00000 0.33000 -0.64000
v 0.06500 0.10374 -0.68836
v 0.06500 0.32795 -0.72456
v 0.00413 0.12188 -0.64804
v 0.06024 0.32937 -0.72141
v 0.02738 0.15125 -0.58278
v 0.06206 0.33166 -0.71631
v 0.10262 0.15125 -0.58278
v 0.06794 0.33166 -0.71631
v 0.12587 0.12188 -0.64804
v 0.06976 0.32937 -0.72141
v 0.06500 0.13000 -0.63000
v 0.06500 0.33000 -0.72000
v 0.19700 0.13000 -0.70000
v 0.13500 0.33000 -0.80000
v 0.15070 0.10150 -0.75699
v 0.13155 0.32787 -0.80425
v 0.07580 0.11239 -0.73522
v 0.12595 0.32869 -0.80263
v 0.07580 0.14761 -0.66478
v 0.12595 0.33131 -0.79737
v 0.15070 0.15850 -0.64301
v 0.13155 0.33213 -0.79575
v 0.13000 0.13000 -0.70000
v 0.13000 0.33000 -0.80000
usemtl CLOTH
f 1 3 4
f 1 4 2
f 25 3 1
f 26 2 4
f 3 5 6
f 3 6 4
f 25 5 3
f 26 4 6
f 5 7 8
f 5 8 6
f 25 7 5
f 26 6 8
f 7 9 10
f 7 10 8
f 25 9 7
f 26 8 10
f 9 11 12
f 9 12 10
f 25 11 9
f 26 10 12
f 11 13 14
f 11 14 12
f 25 13 11
f 26 12 14
f 13 15 16
f 13 16 14
f 25 15 13
f 26 14 16
f 15 17 18
f 15 18 16
f 25 17 15
f 26 16 18
f 17 19 20
f 17 20 18
f 25 19 17
f 26 18 20
f 19 21 22
f 19 22 20
f 25 21 19
f 26 20 22
f 21 23 24
f 21 24 22
f 25 23 21
f 26 22 24
f 23 1 2
f 23 2 24
f 25 1 23
f 26 24 2
usemtl FUR
f 27 29 31
f 27 31 30
f 27 30 32
f 27 32 29
f 28 31 29
f 28 30 31
f 28 32 30
f 28 29 32
f 33 35 37
f 33 37 36
f 33 36 38
f 33 38 35
f 34 37 35
f 34 36 37
f 34 38 36
f 34 35 38
f 39 41 43
f 39 43 42
f 39 42 44
f 39 44 41
f 40 43 41
f 40 42 43
f 40 44 42
f 40 41 44
f 45 47 49
f 45 49 48
f 45 48 50
f 45 50 47
f 46 49 47
f 46 48 49
f 46 50 48
f 46 47 50
f 51 53 55
f 51 55 54
f 51 54 56
f 51 56 53
f 52 55 53
f 52 54 55
f 52 56 54
f 52 53 56
f 57 59 61
f 57 61 60
f 57 60 62
f 57 62 59
f 58 61 59
f 58 60 61
f 58 62 60
f 58 59 62
f 63 65 67
f 63 67 66
f 63 66 68
f 63 68 65
f 64 67 65
f 64 66 67
f 64 68 66
f 64 65 68
f 69 71 73
f 69 73 72
f 69 72 74
f 69 74 71
f 70 73 71
f 70 72 73
f 70 74 72
f 70 71 74
f 75 77 79
f 75 79 78
f 75 78 80
f 75 80 77
f 76 79 77
f 76 78 79
f 76 80 78
f 76 77 80
f 81 83 85
f 81 85 84
f 81 84 86
f 81 86 83
f 82 85 83
f 82 84 85
f 82 86 84
f 82 83 86
f 87 89 91
f 87 91 90
f 87 90 92
f 87 92 89
f 88 91 89
f 88 90 91
f 88 92 90
f 88 89 92
f 93 95 97
f 93 97 96
f 93 96 98
f 93 98 95
f 94 97 95
f 94 96 97
f 94 98 96
f 94 95 98
f 99 101 103
f 99 103 102
f 99 102 104
f 99 104 101
f 100 103 101
f 100 102 103
f 100 104 102
f 100 101 104
f 105 107 109
f 105 109 108
f 105 108 110
f 105 110 107
f 106 109 107
f 106 108 109
f 106 110 108
f 106 107 110
usemtl ICE_DARK
f 111 113 114
f 111 114 112
f 131 113 111
f 132 112 114
f 113 115 116
f 113 116 114
f 131 115 113
f 132 114 116
f 115 117 118
f 115 118 116
f 131 117 115
f 132 116 118
f 117 119 120
f 117 120 118
f 131 119 117
f 132 118 120
f 119 121 122
f 119 122 120
f 131 121 119
f 132 120 122
f 121 123 124
f 121 124 122
f 131 123 121
f 132 122 124
f 123 125 126
f 123 126 124
f 131 125 123
f 132 124 126
f 125 127 128
f 125 128 126
f 131 127 125
f 132 126 128
f 127 129 130
f 127 130 128
f 131 129 127
f 132 128 130
f 129 111 112
f 129 112 130
f 131 111 129
f 132 130 112
usemtl ICE
f 133 134 135
f 133 135 136
f 138 137 140
f 138 140 139
f 137 133 136
f 137 136 140
f 134 138 139
f 134 139 135
f 136 135 139
f 136 139 140
f 137 138 134
f 137 134 133
f 141 143 145
f 141 145 144
f 141 144 146
f 141 146 143
f 142 145 143
f 142 144 145
f 142 146 144
f 142 143 146
f 147 149 151
f 147 151 150
f 147 150 152
f 147 152 149
f 148 151 149
f 148 150 151
f 148 152 150
f 148 149 152
f 153 155 157
f 153 157 156
f 153 156 158
f 153 158 155
f 154 157 155
f 154 156 157
f 154 158 156
f 154 155 158
f 159 161 163
f 159 163 162
f 159 162 164
f 159 164 161
f 160 163 161
f 160 162 163
f 160 164 162
f 160 161 164
f 165 167 168
f 165 168 166
f 177 167 165
f 178 166 168
f 167 169 170
f 167 170 168
f 177 169 167
f 178 168 170
f 169 171 172
f 169 172 170
f 177 171 169
f 178 170 172
f 171 173 174
f 171 174 172
f 177 173 171
f 178 172 174
f 173 175 176
f 173 176 174
f 177 175 173
f 178 174 176
f 175 165 166
f 175 166 176
f 177 165 175
f 178 176 166
f 179 181 182
f 179 182 180
f 191 181 179
f 192 180 182
f 181 183 184
f 181 184 182
f 191 183 181
f 192 182 184
f 183 185 186
f 183 186 184
f 191 185 183
f 192 184 186
f 185 187 188
f 185 188 186
f 191 187 185
f 192 186 188
f 187 189 190
f 187 190 188
f 191 189 187
f 192 188 190
f 189 179 180
f 189 180 190
f 191 179 189
f 192 190 180
f 193 195 196
f 193 196 194
f 205 195 193
f 206 194 196
f 195 197 198
f 195 198 196
f 205 197 195
f 206 196 198
f 197 199 200
f 197 200 198
f 205 199 197
f 206 198 200
f 199 201 202
f 199 202 200
f 205 201 199
f 206 200 202
f 201 203 204
f 201 204 202
f 205 203 201
f 206 202 204
f 203 193 194
f 203 194 204
f 205 193 203
f 206 204 194
f 207 209 210
f 207 210 208
f 219 209 207
f 220 208 210
f 209 211 212
f 209 212 210
f 219 211 209
f 220 210 212
f 211 213 214
f 211 214 212
f 219 213 211
f 220 212 214
f 213 215 216
f 213 216 214
f 219 215 213
f 220 214 216
f 215 217 218
f 215 218 216
f 219 217 215
f 220 216 218
f 217 207 208
f 217 208 218
f 219 207 217
f 220 218 208
f 221 223 224
f 221 224 222
f 233 223 221
f 234 222 224
f 223 225 226
f 223 226 224
f 233 225 223
f 234 224 226
f 225 227 228
f 225 228 226
f 233 227 225
f 234 226 228
f 227 229 230
f 227 230 228
f 233 229 227
f 234 228 230
f 229 231 232
f 229 232 230
f 233 231 229
f 234 230 232
f 231 221 222
f 231 222 232
f 233 221 231
f 234 232 222
f 235 237 238
f 235 238 236
f 245 237 235
f 246 236 238
f 237 239 240
f 237 240 238
f 245 239 237
f 246 238 240
f 239 241 242
f 239 242 240
f 245 241 239
f 246 240 242
f 241 243 244
f 241 244 242
f 245 243 241
f 246 242 244
f 243 235 236
f 243 236 244
f 245 235 243
f 246 244 236
f 247 249 250
f 247 250 248
f 257 249 247
f 258 248 250
f 249 251 252
f 249 252 250
f 257 251 249
f 258 250 252
f 251 253 254
f 251 254 252
f 257 253 251
f 258 252 254
f 253 255 256
f 253 256 254
f 257 255 253
f 258 254 256
f 255 247 248
f 255 248 256
f 257 247 255
f 258 256 248
f 259 261 262
f 259 262 260
f 269 261 259
f 270 260 262
f 261 263 264
f 261 264 262
f 269 263 261
f 270 262 264
f 263 265 266
f 263 266 264
f 269 265 263
f 270 264 266
f 265 267 268
f 265 268 266
f 269 267 265
f 270 266 268
f 267 259 260
f 267 260 268
f 269 259 267
f 270 268 260
f 271 273 274
f 271 274 272
f 281 273 271
f 282 272 274
f 273 275 276
f 273 276 274
f 281 275 273
f 282 274 276
f 275 277 278
f 275 278 276
f 281 277 275
f 282 276 278
f 277 279 280
f 277 280 278
f 281 279 277
f 282 278 280
f 279 271 272
f 279 272 280
f 281 271 279
f 282 280 272
f 283 285 286
f 283 286 284
f 293 285 283
f 294 284 286
f 285 287 288
f 285 288 286
f 293 287 285
f 294 286 288
f 287 289 290
f 287 290 288
f 293 289 287
f 294 288 290
f 289 291 292
f 289 292 290
f 293 291 289
f 294 290 292
f 291 283 284
f 291 284 292
f 293 283 291
f 294 292 284
