mtllib materials.mtl
v 0.00000 1.34640 0.00000
v 0.00000 0.37360 0.00000
v 0.38000 0.86000 0.00000
v -0.38000 0.86000 0.00000
v 0.00000 0.86000 0.38000
v 0.00000 0.86000 -0.38000
v 0.00000 0.99200 -0.34000
v 0.00000 0.76800 -0.34000
v 0.14000 0.88000 -0.34000
v -0.14000 0.88000 -0.34000
v 0.00000 0.88000 -0.20000
v 0.00000 0.88000 -0.48000
v 0.20200 0.62000 0.12529
v 0.75097 0.12000 0.27941
v 0.17813 0.58094 0.08650
v 0.73307 0.09070 0.25032
v 0.19586 0.58094 0.02918
v 0.74637 0.09070 0.20733
v 0.23746 0.62000 0.01065
v 0.77757 0.12000 0.19343
v 0.26133 0.65906 0.04944
v 0.79547 0.14930 0.22252
v 0.24360 0.65906 0.10676
v 0.78217 0.14930 0.26551
v 0.21973 0.62000 0.06797
v 0.76427 0.12000 0.23642
v -0.20950 0.62000 0.11229
v -0.61746 0.12000 0.51066
v -0.16398 0.58094 0.11101
v -0.58331 0.09070 0.50970
v -0.12320 0.58094 0.15503
v -0.55273 0.09070 0.54271
v -0.12795 0.62000 0.20032
v -0.55630 0.12000 0.57668
v -0.17348 0.65906 0.20160
v -0.59044 0.14930 0.57764
v -0.21425 0.65906 0.15758
v -0.62102 0.14930 0.54463
v -0.16873 0.62000 0.15630
v -0.58688 0.12000 0.54367
v 0.00751 0.62000 -0.23758
v -0.13351 0.12000 -0.79006
v -0.01415 0.58094 -0.19751
v -0.14975 0.09070 -0.76001
v -0.07266 0.58094 -0.18421
v -0.19363 0.09070 -0.75004
v -0.10951 0.62000 -0.21097
v -0.22127 0.12000 -0.77011
v -0.08785 0.65906 -0.25103
v -0.20503 0.14930 -0.80015
v -0.02935 0.65906 -0.26434
v -0.16115 0.14930 -0.81013
v -0.05100 0.62000 -0.22427
v -0.17739 0.12000 -0.78008
v 0.00000 1.12000 -0.15000
v 0.00000 2.25000 -0.00500
v -0.11727 1.12000 -0.09352
v -0.00391 2.25000 -0.00312
v -0.14624 1.12000 0.03338
v -0.00487 2.25000 0.00111
v -0.06508 1.12000 0.13515
v -0.00217 2.25000 0.00450
v 0.06508 1.12000 0.13515
v 0.00217 2.25000 0.00450
v 0.14624 1.12000 0.03338
v 0.00487 2.25000 0.00111
v 0.11727 1.12000 -0.09352
v 0.00391 2.25000 -0.00312
v 0.00000 1.12000 0.00000
v 0.00000 2.25000 0.00000
v 0.07500 0.88000 -0.22000
v 0.04500 1.02000 -0.95000
v 0.04676 0.82241 -0.23104
v 0.02806 0.98545 -0.95663
v -0.01669 0.80819 -0.23377
v -0.01001 0.97691 -0.95826
v -0.06757 0.84804 -0.22613
v -0.04054 1.00082 -0.95368
v -0.06757 0.91196 -0.21387
v -0.04054 1.03918 -0.94632
v -0.01669 0.95181 -0.20623
v -0.01001 1.06309 -0.94174
v 0.04676 0.93759 -0.20896
v 0.02806 1.05455 -0.94337
v 0.00000 0.88000 -0.22000
v 0.00000 1.02000 -0.95000
v 0.07500 1.02000 -0.95000
v 0.00500 1.02000 -1.35000
v 0.03750 0.95505 -0.95000
v 0.00250 1.01567 -1.35000
v -0.03750 0.95505 -0.95000
v -0.00250 1.01567 -1.35000
v -0.07500 1.02000 -0.95000
v -0.00500 1.02000 -1.35000
v -0.03750 1.08495 -0.95000
v -0.00250 1.02433 -1.35000
v 0.03750 1.08495 -0.95000
v 0.00250 1.02433 -1.35000
v 0.00000 1.02000 -0.95000
v 0.00000 1.02000 -1.35000
usemtl ICE_DARK
f 1 3 5
f 1 5 4
f 1 4 6
f 1 6 3
f 2 5 3
f 2 4 5
f 2 6 4
f 2 3 6
usemtl ICE
f 7 9 11
f 7 11 10
f 7 10 12
f 7 12 9
f 8 11 9
f 8 10 11
f 8 12 10
f 8 9 12
usemtl METAL
f 13 15 16
f 13 16 14
f 25 15 13
f 26 14 16
f 15 17 18
f 15 18 16
f 25 17 15
f 26 16 18
f 17 19 20
f 17 20 18
f 25 19 17
f 26 18 20
f 19 21 22
f 19 22 20
f 25 21 19
f 26 20 22
f 21 23 24
f 21 24 22
f 25 23 21
f 26 22 24
f 23 13 14
f 23 14 24
f 25 13 23
f 26 24 14
f 27 29 30
f 27 30 28
f 39 29 27
f 40 28 30
f 29 31 32
f 29 32 30
f 39 31 29
f 40 30 32
f 31 33 34
f 31 34 32
f 39 33 31
f 40 32 34
f 33 35 36
f 33 36 34
f 39 35 33
f 40 34 36
f 35 37 38
f 35 38 36
f 39 37 35
f 40 36 38
f 37 27 28
f 37 28 38
f 39 27 37
f 40 38 28
f 41 43 44
f 41 44 42
f 53 43 41
f 54 42 44
f 43 45 46
f 43 46 44
f 53 45 43
f 54 44 46
f 45 47 48
f 45 48 46
f 53 47 45
f 54 46 48
f 47 49 50
f 47 50 48
f 53 49 47
f 54 48 50
f 49 51 52
f 49 52 50
f 53 51 49
f 54 50 52
f 51 41 42
f 51 42 52
f 53 41 51
f 54 52 42
usemtl ICE
f 55 57 58
f 55 58 56
f 69 57 55
f 70 56 58
f 57 59 60
f 57 60 58
f 69 59 57
f 70 58 60
f 59 61 62
f 59 62 60
f 69 61 59
f 70 60 62
f 61 63 64
f 61 64 62
f 69 63 61
f 70 62 64
f 63 65 66
f 63 66 64
f 69 65 63
f 70 64 66
f 65 67 68
f 65 68 66
f 69 67 65
f 70 66 68
f 67 55 56
f 67 56 68
f 69 55 67
f 70 68 56
usemtl METAL
f 71 73 74
f 71 74 72
f 85 73 71
f 86 72 74
f 73 75 76
f 73 76 74
f 85 75 73
f 86 74 76
f 75 77 78
f 75 78 76
f 85 77 75
f 86 76 78
f 77 79 80
f 77 80 78
f 85 79 77
f 86 78 80
f 79 81 82
f 79 82 80
f 85 81 79
f 86 80 82
f 81 83 84
f 81 84 82
f 85 83 81
f 86 82 84
f 83 71 72
f 83 72 84
f 85 71 83
f 86 84 72
usemtl ICE
f 87 89 90
f 87 90 88
f 99 89 87
f 100 88 90
f 89 91 92
f 89 92 90
f 99 91 89
f 100 90 92
f 91 93 94
f 91 94 92
f 99 93 91
f 100 92 94
f 93 95 96
f 93 96 94
f 99 95 93
f 100 94 96
f 95 97 98
f 95 98 96
f 99 97 95
f 100 96 98
f 97 87 88
f 97 88 98
f 99 87 97
f 100 98 88
