mtllib materials.mtl
v -3.30000 0.00000 -2.40000
v 3.30000 0.00000 -2.40000
v 3.30000 0.24000 -2.40000
v -3.30000 0.24000 -2.40000
v -3.30000 0.00000 2.40000
v 3.30000 0.00000 2.40000
v 3.30000 0.24000 2.40000
v -3.30000 0.24000 2.40000
v -3.17500 0.11000 2.18000
v 3.17500 0.11000 2.18000
v 3.17500 2.59000 2.18000
v -3.17500 2.59000 2.18000
v -3.17500 0.11000 2.38000
v 3.17500 0.11000 2.38000
v 3.17500 2.59000 2.38000
v -3.17500 2.59000 2.38000
v -3.18000 0.11000 -2.27500
v -2.98000 0.11000 -2.27500
v -2.98000 2.59000 -2.27500
v -3.18000 2.59000 -2.27500
v -3.18000 0.11000 2.27500
v -2.98000 0.11000 2.27500
v -2.98000 2.59000 2.27500
v -3.18000 2.59000 2.27500
v 2.98000 0.11000 -2.27500
v 3.18000 0.11000 -2.27500
v 3.18000 2.59000 -2.27500
v 2.98000 2.59000 -2.27500
v 2.98000 0.11000 2.27500
v 3.18000 0.11000 2.27500
v 3.18000 2.59000 2.27500
v 2.98000 2.59000 2.27500
v -2.81000 0.10000 -2.41000
v -2.55000 0.10000 -2.41000
v -2.55000 2.60000 -2.41000
v -2.81000 2.60000 -2.41000
v -2.81000 0.10000 -2.19000
v -2.55000 0.10000 -2.19000
v -2.55000 2.60000 -2.19000
v -2.81000 2.60000 -2.19000
v -1.48000 0.10000 -2.41000
v -1.22000 0.10000 -2.41000
v -1.22000 2.60000 -2.41000
v -1.48000 2.60000 -2.41000
v -1.48000 0.10000 -2.19000
v -1.22000 0.10000 -2.19000
v -1.22000 2.60000 -2.19000
v -1.48000 2.60000 -2.19000
v 1.22000 0.10000 -2.41000
v 1.48000 0.10000 -2.41000
v 1.48000 2.60000 -2.41000
v 1.22000 2.60000 -2.41000
v 1.22000 0.10000 -2.19000
v 1.48000 0.10000 -2.19000
v 1.48000 2.60000 -2.19000
v 1.22000 2.60000 -2.19000
v 2.55000 0.10000 -2.41000
v 2.81000 0.10000 -2.41000
v 2.81000 2.60000 -2.41000
v 2.55000 2.60000 -2.41000
v 2.55000 0.10000 -2.19000
v 2.81000 0.10000 -2.19000
v 2.81000 2.60000 -2.19000
v 2.55000 2.60000 -2.19000
v -2.51000 1.01000 -2.47000
v -1.39000 1.01000 -2.47000
v -1.39000 2.03000 -2.47000
v -2.51000 2.03000 -2.47000
v -2.51000 1.01000 -2.39000
v -1.39000 1.01000 -2.39000
v -1.39000 2.03000 -2.39000
v -2.51000 2.03000 -2.39000
v -0.56000 1.01000 -2.47000
v 0.56000 1.01000 -2.47000
v 0.56000 2.03000 -2.47000
v -0.56000 2.03000 -2.47000
v -0.56000 1.01000 -2.39000
v 0.56000 1.01000 -2.39000
v 0.56000 2.03000 -2.39000
v -0.56000 2.03000 -2.39000
v 1.39000 1.01000 -2.47000
v 2.51000 1.01000 -2.47000
v 2.51000 2.03000 -2.47000
v 1.39000 2.03000 -2.47000
v 1.39000 1.01000 -2.39000
v 2.51000 1.01000 -2.39000
v 2.51000 2.03000 -2.39000
v 1.39000 2.03000 -2.39000
v -0.48000 0.05000 -2.52000
v 0.48000 0.05000 -2.52000
v 0.48000 2.05000 -2.52000
v -0.48000 2.05000 -2.52000
v -0.48000 0.05000 -2.38000
v 0.48000 0.05000 -2.38000
v 0.48000 2.05000 -2.38000
v -0.48000 2.05000 -2.38000
v -3.45000 2.61000 -2.55000
v 3.45000 2.61000 -2.55000
v 3.45000 2.85000 -2.55000
v -3.45000 2.85000 -2.55000
v -3.45000 2.61000 2.55000
v 3.45000 2.61000 2.55000
v 3.45000 2.85000 2.55000
v -3.45000 2.85000 2.55000
v -3.57500 2.82500 -2.66000
v 3.57500 2.82500 -2.66000
v 3.57500 2.99500 -2.66000
v -3.57500 2.99500 -2.66000
v -3.57500 2.82500 2.66000
v 3.57500 2.82500 2.66000
v 3.57500 2.99500 2.66000
v -3.57500 2.99500 2.66000
v 2.35000 2.84000 1.12000
v 2.35000 4.24000 1.14000
v 2.24420 2.84000 1.15438
v 2.25595 4.24000 1.17056
v 2.17881 2.84000 1.24438
v 2.19783 4.24000 1.25056
v 2.17881 2.84000 1.35562
v 2.19783 4.24000 1.34944
v 2.24420 2.84000 1.44562
v 2.25595 4.24000 1.42944
v 2.35000 2.84000 1.48000
v 2.35000 4.24000 1.46000
v 2.45580 2.84000 1.44562
v 2.44405 4.24000 1.42944
v 2.52119 2.84000 1.35562
v 2.50217 4.24000 1.34944
v 2.52119 2.84000 1.24438
v 2.50217 4.24000 1.25056
v 2.45580 2.84000 1.15438
v 2.44405 4.24000 1.17056
v 2.35000 2.84000 1.30000
v 2.35000 4.24000 1.30000
v -2.50000 -0.75000 -1.81000
v -2.50000 0.00000 -1.79000
v -2.58600 -0.75000 -1.76858
v -2.57036 0.00000 -1.75611
v -2.60724 -0.75000 -1.67552
v -2.58774 0.00000 -1.67997
v -2.54773 -0.75000 -1.60089
v -2.53905 0.00000 -1.61891
v -2.45227 -0.75000 -1.60089
v -2.46095 0.00000 -1.61891
v -2.39276 -0.75000 -1.67552
v -2.41226 0.00000 -1.67997
v -2.41400 -0.75000 -1.76858
v -2.42964 0.00000 -1.75611
v -2.50000 -0.75000 -1.70000
v -2.50000 0.00000 -1.70000
v -2.50000 -0.75000 1.59000
v -2.50000 0.00000 1.61000
v -2.58600 -0.75000 1.63142
v -2.57036 0.00000 1.64389
v -2.60724 -0.75000 1.72448
v -2.58774 0.00000 1.72003
v -2.54773 -0.75000 1.79911
v -2.53905 0.00000 1.78109
v -2.45227 -0.75000 1.79911
v -2.46095 0.00000 1.78109
v -2.39276 -0.75000 1.72448
v -2.41226 0.00000 1.72003
v -2.41400 -0.75000 1.63142
v -2.42964 0.00000 1.64389
v -2.50000 -0.75000 1.70000
v -2.50000 0.00000 1.70000
v 2.50000 -0.75000 -1.81000
v 2.50000 0.00000 -1.79000
v 2.41400 -0.75000 -1.76858
v 2.42964 0.00000 -1.75611
v 2.39276 -0.75000 -1.67552
v 2.41226 0.00000 -1.67997
v 2.45227 -0.75000 -1.60089
v 2.46095 0.00000 -1.61891
v 2.54773 -0.75000 -1.60089
v 2.53905 0.00000 -1.61891
v 2.60724 -0.75000 -1.67552
v 2.58774 0.00000 -1.67997
v 2.58600 -0.75000 -1.76858
v 2.57036 0.00000 -1.75611
v 2.50000 -0.75000 -1.70000
v 2.50000 0.00000 -1.70000
v 2.50000 -0.75000 1.59000
v 2.50000 0.00000 1.61000
v 2.41400 -0.75000 1.63142
v 2.42964 0.00000 1.64389
v 2.39276 -0.75000 1.72448
v 2.41226 0.00000 1.72003
v 2.45227 -0.75000 1.79911
v 2.46095 0.00000 1.78109
v 2.54773 -0.75000 1.79911
v 2.53905 0.00000 1.78109
v 2.60724 -0.75000 1.72448
v 2.58774 0.00000 1.72003
v 2.58600 -0.75000 1.63142
v 2.57036 0.00000 1.64389
v 2.50000 -0.75000 1.70000
v 2.50000 0.00000 1.70000
v 2.94500 0.12500 0.57500
v 4.29500 0.12500 0.57500
v 4.29500 1.07500 0.57500
v 2.94500 1.07500 0.57500
v 2.94500 0.12500 1.42500
v 4.29500 0.12500 1.42500
v 4.29500 1.07500 1.42500
v 2.94500 1.07500 1.42500
usemtl METAL
f 1 2 3
f 1 3 4
f 6 5 8
f 6 8 7
f 5 1 4
f 5 4 8
f 2 6 7
f 2 7 3
f 4 3 7
f 4 7 8
f 5 6 2
f 5 2 1
usemtl WALL
f 9 10 11
f 9 11 12
f 14 13 16
f 14 16 15
f 13 9 12
f 13 12 16
f 10 14 15
f 10 15 11
f 12 11 15
f 12 15 16
f 13 14 10
f 13 10 9
f 17 18 19
f 17 19 20
f 22 21 24
f 22 24 23
f 21 17 20
f 21 20 24
f 18 22 23
f 18 23 19
f 20 19 23
f 20 23 24
f 21 22 18
f 21 18 17
f 25 26 27
f 25 27 28
f 30 29 32
f 30 32 31
f 29 25 28
f 29 28 32
f 26 30 31
f 26 31 27
f 28 27 31
f 28 31 32
f 29 30 26
f 29 26 25
f 33 34 35
f 33 35 36
f 38 37 40
f 38 40 39
f 37 33 36
f 37 36 40
f 34 38 39
f 34 39 35
f 36 35 39
f 36 39 40
f 37 38 34
f 37 34 33
f 41 42 43
f 41 43 44
f 46 45 48
f 46 48 47
f 45 41 44
f 45 44 48
f 42 46 47
f 42 47 43
f 44 43 47
f 44 47 48
f 45 46 42
f 45 42 41
f 49 50 51
f 49 51 52
f 54 53 56
f 54 56 55
f 53 49 52
f 53 52 56
f 50 54 55
f 50 55 51
f 52 51 55
f 52 55 56
f 53 54 50
f 53 50 49
f 57 58 59
f 57 59 60
f 62 61 64
f 62 64 63
f 61 57 60
f 61 60 64
f 58 62 63
f 58 63 59
f 60 59 63
f 60 63 64
f 61 62 58
f 61 58 57
usemtl WARM
f 65 66 67
f 65 67 68
f 70 69 72
f 70 72 71
f 69 65 68
f 69 68 72
f 66 70 71
f 66 71 67
f 68 67 71
f 68 71 72
f 69 70 66
f 69 66 65
f 73 74 75
f 73 75 76
f 78 77 80
f 78 80 79
f 77 73 76
f 77 76 80
f 74 78 79
f 74 79 75
f 76 75 79
f 76 79 80
f 77 78 74
f 77 74 73
f 81 82 83
f 81 83 84
f 86 85 88
f 86 88 87
f 85 81 84
f 85 84 88
f 82 86 87
f 82 87 83
f 84 83 87
f 84 87 88
f 85 86 82
f 85 82 81
usemtl METAL
f 89 90 91
f 89 91 92
f 94 93 96
f 94 96 95
f 93 89 92
f 93 92 96
f 90 94 95
f 90 95 91
f 92 91 95
f 92 95 96
f 93 94 90
f 93 90 89
f 97 98 99
f 97 99 100
f 102 101 104
f 102 104 103
f 101 97 100
f 101 100 104
f 98 102 103
f 98 103 99
f 100 99 103
f 100 103 104
f 101 102 98
f 101 98 97
usemtl SNOW
f 105 106 107
f 105 107 108
f 110 109 112
f 110 112 111
f 109 105 108
f 109 108 112
f 106 110 111
f 106 111 107
f 108 107 111
f 108 111 112
f 109 110 106
f 109 106 105
usemtl METAL
f 113 115 116
f 113 116 114
f 133 115 113
f 134 114 116
f 115 117 118
f 115 118 116
f 133 117 115
f 134 116 118
f 117 119 120
f 117 120 118
f 133 119 117
f 134 118 120
f 119 121 122
f 119 122 120
f 133 121 119
f 134 120 122
f 121 123 124
f 121 124 122
f 133 123 121
f 134 122 124
f 123 125 126
f 123 126 124
f 133 125 123
f 134 124 126
f 125 127 128
f 125 128 126
f 133 127 125
f 134 126 128
f 127 129 130
f 127 130 128
f 133 129 127
f 134 128 130
f 129 131 132
f 129 132 130
f 133 131 129
f 134 130 132
f 131 113 114
f 131 114 132
f 133 113 131
f 134 132 114
f 135 137 138
f 135 138 136
f 149 137 135
f 150 136 138
f 137 139 140
f 137 140 138
f 149 139 137
f 150 138 140
f 139 141 142
f 139 142 140
f 149 141 139
f 150 140 142
f 141 143 144
f 141 144 142
f 149 143 141
f 150 142 144
f 143 145 146
f 143 146 144
f 149 145 143
f 150 144 146
f 145 147 148
f 145 148 146
f 149 147 145
f 150 146 148
f 147 135 136
f 147 136 148
f 149 135 147
f 150 148 136
f 151 153 154
f 151 154 152
f 165 153 151
f 166 152 154
f 153 155 156
f 153 156 154
f 165 155 153
f 166 154 156
f 155 157 158
f 155 158 156
f 165 157 155
f 166 156 158
f 157 159 160
f 157 160 158
f 165 159 157
f 166 158 160
f 159 161 162
f 159 162 160
f 165 161 159
f 166 160 162
f 161 163 164
f 161 164 162
f 165 163 161
f 166 162 164
f 163 151 152
f 163 152 164
f 165 151 163
f 166 164 152
f 167 169 170
f 167 170 168
f 181 169 167
f 182 168 170
f 169 171 172
f 169 172 170
f 181 171 169
f 182 170 172
f 171 173 174
f 171 174 172
f 181 173 171
f 182 172 174
f 173 175 176
f 173 176 174
f 181 175 173
f 182 174 176
f 175 177 178
f 175 178 176
f 181 177 175
f 182 176 178
f 177 179 180
f 177 180 178
f 181 179 177
f 182 178 180
f 179 167 168
f 179 168 180
f 181 167 179
f 182 180 168
f 183 185 186
f 183 186 184
f 197 185 183
f 198 184 186
f 185 187 188
f 185 188 186
f 197 187 185
f 198 186 188
f 187 189 190
f 187 190 188
f 197 189 187
f 198 188 190
f 189 191 192
f 189 192 190
f 197 191 189
f 198 190 192
f 191 193 194
f 191 194 192
f 197 193 191
f 198 192 194
f 193 195 196
f 193 196 194
f 197 195 193
f 198 194 196
f 195 183 184
f 195 184 196
f 197 183 195
f 198 196 184
f 199 200 201
f 199 201 202
f 204 203 206
f 204 206 205
f 203 199 202
f 203 202 206
f 200 204 205
f 200 205 201
f 202 201 205
f 202 205 206
f 203 204 200
f 203 200 199
