mtllib materials.mtl
v 0.00000 2.46840 0.00000
v 0.00000 0.63160 0.00000
v 0.82000 1.55000 0.00000
v -0.82000 1.55000 0.00000
v 0.00000 1.55000 0.82000
v 0.00000 1.55000 -0.82000
v -0.79000 1.25000 -0.38000
v 0.79000 1.25000 -0.38000
v 0.79000 1.87000 -0.38000
v -0.79000 1.87000 -0.38000
v -0.79000 1.25000 0.70000
v 0.79000 1.25000 0.70000
v 0.79000 1.87000 0.70000
v -0.79000 1.87000 0.70000
v 0.00000 1.81200 -0.79000
v 0.00000 1.30800 -0.79000
v 0.28000 1.56000 -0.79000
v -0.28000 1.56000 -0.79000
v 0.00000 1.56000 -0.51000
v 0.00000 1.56000 -1.07000
v -0.54000 2.06178 -0.05434
v -0.63720 2.67056 0.11503
v -0.62985 2.04198 -0.00374
v -0.64148 2.66962 0.11744
v -0.62985 2.03020 0.10060
v -0.64148 2.66906 0.12241
v -0.54000 2.03822 0.15434
v -0.63720 2.66944 0.12497
v -0.45015 2.05802 0.10374
v -0.63292 2.67038 0.12256
v -0.45015 2.06980 -0.00060
v -0.63292 2.67094 0.11759
v -0.54000 2.05000 0.05000
v -0.63720 2.67000 0.12000
v -0.36000 2.06091 -0.05443
v -0.42480 2.72052 0.11503
v -0.45051 2.04680 -0.00312
v -0.42911 2.71985 0.11747
v -0.45051 2.03588 0.10131
v -0.42911 2.71933 0.12244
v -0.36000 2.03909 0.15443
v -0.42480 2.71948 0.12497
v -0.26949 2.05320 0.10312
v -0.42049 2.72015 0.12253
v -0.26949 2.06412 -0.00131
v -0.42049 2.72067 0.11756
v -0.36000 2.05000 0.05000
v -0.42480 2.72000 0.12000
v -0.18000 2.06016 -0.05451
v -0.21240 2.77048 0.11502
v -0.27084 2.05103 -0.00265
v -0.21673 2.77005 0.11749
v -0.27084 2.04087 0.10186
v -0.21673 2.76957 0.12247
v -0.18000 2.03984 0.15451
v -0.21240 2.76952 0.12498
v -0.08916 2.04897 0.10265
v -0.20807 2.76995 0.12251
v -0.08916 2.05913 -0.00186
v -0.20807 2.77043 0.11753
v -0.18000 2.05000 0.05000
v -0.21240 2.77000 0.12000
v 0.00000 2.05951 -0.05457
v 0.00000 2.82045 0.11502
v -0.09093 2.05475 -0.00228
v -0.00433 2.82023 0.11751
v -0.09093 2.04525 0.10228
v -0.00433 2.81977 0.12249
v -0.00000 2.04049 0.15457
v -0.00000 2.81955 0.12498
v 0.09093 2.04525 0.10228
v 0.00433 2.81977 0.12249
v 0.09093 2.05475 -0.00228
v 0.00433 2.82023 0.11751
v 0.00000 2.05000 0.05000
v 0.00000 2.82000 0.12000
v 0.18000 2.06016 -0.05451
v 0.21240 2.77048 0.11502
v 0.08916 2.05913 -0.00186
v 0.20807 2.77043 0.11753
v 0.08916 2.04897 0.10265
v 0.20807 2.76995 0.12251
v 0.18000 2.03984 0.15451
v 0.21240 2.76952 0.12498
v 0.27084 2.04087 0.10186
v 0.21673 2.76957 0.12247
v 0.27084 2.05103 -0.00265
v 0.21673 2.77005 0.11749
v 0.18000 2.05000 0.05000
v 0.21240 2.77000 0.12000
v 0.36000 2.06091 -0.05443
v 0.42480 2.72052 0.11503
v 0.26949 2.06412 -0.00131
v 0.42049 2.72067 0.11756
v 0.26949 2.05320 0.10312
v 0.42049 2.72015 0.12253
v 0.36000 2.03909 0.15443
v 0.42480 2.71948 0.12497
v 0.45051 2.03588 0.10131
v 0.42911 2.71933 0.12244
v 0.45051 2.04680 -0.00312
v 0.42911 2.71985 0.11747
v 0.36000 2.05000 0.05000
v 0.42480 2.72000 0.12000
v 0.54000 2.06178 -0.05434
v 0.63720 2.67056 0.11503
v 0.45015 2.06980 -0.00060
v 0.63292 2.67094 0.11759
v 0.45015 2.05802 0.10374
v 0.63292 2.67038 0.12256
v 0.54000 2.03822 0.15434
v 0.63720 2.66944 0.12497
v 0.62985 2.03020 0.10060
v 0.64148 2.66906 0.12241
v 0.62985 2.04198 -0.00374
v 0.64148 2.66962 0.11744
v 0.54000 2.05000 0.05000
v 0.63720 2.67000 0.12000
v 0.58000 1.42000 0.12000
v 1.35000 0.82000 0.09500
v 0.52785 1.35307 0.08485
v 1.30871 0.76701 0.06718
v 0.50624 1.32534 0.00000
v 1.29161 0.74506 0.00000
v 0.52785 1.35307 -0.08485
v 1.30871 0.76701 -0.06718
v 0.58000 1.42000 -0.12000
v 1.35000 0.82000 -0.09500
v 0.63215 1.48693 -0.08485
v 1.39129 0.87299 -0.06718
v 0.65376 1.51466 -0.00000
v 1.40839 0.89494 -0.00000
v 0.63215 1.48693 0.08485
v 1.39129 0.87299 0.06718
v 0.58000 1.42000 0.00000
v 1.35000 0.82000 0.00000
v 1.35000 0.82000 0.10000
v 1.92000 0.14000 0.07500
v 1.29581 0.77458 0.07071
v 1.87936 0.10593 0.05303
v 1.27336 0.75576 0.00000
v 1.86252 0.09182 0.00000
v 1.29581 0.77458 -0.07071
v 1.87936 0.10593 -0.05303
v 1.35000 0.82000 -0.10000
v 1.92000 0.14000 -0.07500
v 1.40419 0.86542 -0.07071
v 1.96064 0.17407 -0.05303
v 1.42664 0.88424 -0.00000
v 1.97748 0.18818 -0.00000
v 1.40419 0.86542 0.07071
v 1.96064 0.17407 0.05303
v 1.35000 0.82000 0.00000
v 1.92000 0.14000 0.00000
v 1.69000 0.08000 -0.15000
v 2.15000 0.08000 -0.15000
v 2.15000 0.20000 -0.15000
v 1.69000 0.20000 -0.15000
v 1.69000 0.08000 0.15000
v 2.15000 0.08000 0.15000
v 2.15000 0.20000 0.15000
v 1.69000 0.20000 0.15000
v 0.18608 1.42000 0.56229
v 0.59273 0.82000 1.21663
v 0.19044 1.35307 0.49955
v 0.59618 0.76701 1.16696
v 0.25312 1.32534 0.43842
v 0.64580 0.74506 1.11857
v 0.33741 1.35307 0.41470
v 0.71253 0.76701 1.09979
v 0.39392 1.42000 0.44229
v 0.75727 0.82000 1.12163
v 0.38956 1.48693 0.50504
v 0.75382 0.87299 1.17130
v 0.32688 1.51466 0.56617
v 0.70420 0.89494 1.21970
v 0.24259 1.48693 0.58989
v 0.63747 0.87299 1.23848
v 0.29000 1.42000 0.50229
v 0.67500 0.82000 1.16913
v 0.58840 0.82000 1.21913
v 0.89505 0.14000 1.70027
v 0.58667 0.77458 1.15756
v 0.89375 0.10593 1.65409
v 0.63668 0.75576 1.10276
v 0.93126 0.09182 1.61299
v 0.70914 0.77458 1.08685
v 0.98561 0.10593 1.60105
v 0.76160 0.82000 1.11913
v 1.02495 0.14000 1.62527
v 0.76333 0.86542 1.18071
v 1.02625 0.17407 1.67145
v 0.71332 0.88424 1.23550
v 0.98874 0.18818 1.71255
v 0.64086 0.86542 1.25142
v 0.93439 0.17407 1.72448
v 0.67500 0.82000 1.16913
v 0.96000 0.14000 1.66277
v 0.73000 0.08000 1.51277
v 1.19000 0.08000 1.51277
v 1.19000 0.20000 1.51277
v 0.73000 0.20000 1.51277
v 0.73000 0.08000 1.81277
v 1.19000 0.08000 1.81277
v 1.19000 0.20000 1.81277
v 0.73000 0.20000 1.81277
v -0.39392 1.42000 0.44229
v -0.75727 0.82000 1.12163
v -0.33741 1.35307 0.41470
v -0.71253 0.76701 1.09979
v -0.25312 1.32534 0.43842
v -0.64580 0.74506 1.11857
v -0.19044 1.35307 0.49955
v -0.59618 0.76701 1.16696
v -0.18608 1.42000 0.56229
v -0.59273 0.82000 1.21663
v -0.24259 1.48693 0.58989
v -0.63747 0.87299 1.23848
v -0.32688 1.51466 0.56617
v -0.70420 0.89494 1.21970
v -0.38956 1.48693 0.50504
v -0.75382 0.87299 1.17130
v -0.29000 1.42000 0.50229
v -0.67500 0.82000 1.16913
v -0.76160 0.82000 1.11913
v -1.02495 0.14000 1.62527
v -0.70914 0.77458 1.08685
v -0.98561 0.10593 1.60105
v -0.63668 0.75576 1.10276
v -0.93126 0.09182 1.61299
v -0.58667 0.77458 1.15756
v -0.89375 0.10593 1.65409
v -0.58840 0.82000 1.21913
v -0.89505 0.14000 1.70027
v -0.64086 0.86542 1.25142
v -0.93439 0.17407 1.72448
v -0.71332 0.88424 1.23550
v -0.98874 0.18818 1.71255
v -0.76333 0.86542 1.18071
v -1.02625 0.17407 1.67145
v -0.67500 0.82000 1.16913
v -0.96000 0.14000 1.66277
v -1.19000 0.08000 1.51277
v -0.73000 0.08000 1.51277
v -0.73000 0.20000 1.51277
v -1.19000 0.20000 1.51277
v -1.19000 0.08000 1.81277
v -0.73000 0.08000 1.81277
v -0.73000 0.20000 1.81277
v -1.19000 0.20000 1.81277
v -0.58000 1.42000 -0.12000
v -1.35000 0.82000 -0.09500
v -0.52785 1.35307 -0.08485
v -1.30871 0.76701 -0.06718
v -0.50624 1.32534 0.00000
v -1.29161 0.74506 0.00000
v -0.52785 1.35307 0.08485
v -1.30871 0.76701 0.06718
v -0.58000 1.42000 0.12000
v -1.35000 0.82000 0.09500
v -0.63215 1.48693 0.08485
v -1.39129 0.87299 0.06718
v -0.65376 1.51466 0.00000
v -1.40839 0.89494 0.00000
v -0.63215 1.48693 -0.08485
v -1.39129 0.87299 -0.06718
v -0.58000 1.42000 0.00000
v -1.35000 0.82000 0.00000
v -1.35000 0.82000 -0.10000
v -1.92000 0.14000 -0.07500
v -1.29581 0.77458 -0.07071
v -1.87936 0.10593 -0.05303
v -1.27336 0.75576 0.00000
v -1.86252 0.09182 0.00000
v -1.29581 0.77458 0.07071
v -1.87936 0.10593 0.05303
v -1.35000 0.82000 0.10000
v -1.92000 0.14000 0.07500
v -1.40419 0.86542 0.07071
v -1.96064 0.17407 0.05303
v -1.42664 0.88424 0.00000
v -1.97748 0.18818 0.00000
v -1.40419 0.86542 -0.07071
v -1.96064 0.17407 -0.05303
v -1.35000 0.82000 0.00000
v -1.92000 0.14000 0.00000
v -2.15000 0.08000 -0.15000
v -1.69000 0.08000 -0.15000
v -1.69000 0.20000 -0.15000
v -2.15000 0.20000 -0.15000
v -2.15000 0.08000 0.15000
v -1.69000 0.08000 0.15000
v -1.69000 0.20000 0.15000
v -2.15000 0.20000 0.15000
v -0.18608 1.42000 -0.56229
v -0.59273 0.82000 -1.21663
v -0.19044 1.35307 -0.49955
v -0.59618 0.76701 -1.16696
v -0.25312 1.32534 -0.43842
v -0.64580 0.74506 -1.11857
v -0.33741 1.35307 -0.41470
v -0.71253 0.76701 -1.09979
v -0.39392 1.42000 -0.44229
v -0.75727 0.82000 -1.12163
v -0.38956 1.48693 -0.50504
v -0.75382 0.87299 -1.17130
v -0.32688 1.51466 -0.56617
v -0.70420 0.89494 -1.21970
v -0.24259 1.48693 -0.58989
v -0.63747 0.87299 -1.23848
v -0.29000 1.42000 -0.50229
v -0.67500 0.82000 -1.16913
v -0.58840 0.82000 -1.21913
v -0.89505 0.14000 -1.70027
v -0.58667 0.77458 -1.15756
v -0.89375 0.10593 -1.65409
v -0.63668 0.75576 -1.10276
v -0.93126 0.09182 -1.61299
v -0.70914 0.77458 -1.08685
v -0.98561 0.10593 -1.60105
v -0.76160 0.82000 -1.11913
v -1.02495 0.14000 -1.62527
v -0.76333 0.86542 -1.18071
v -1.02625 0.17407 -1.67145
v -0.71332 0.88424 -1.23550
v -0.98874 0.18818 -1.71255
v -0.64086 0.86542 -1.25142
v -0.93439 0.17407 -1.72448
v -0.67500 0.82000 -1.16913
v -0.96000 0.14000 -1.66277
v -1.19000 0.08000 -1.81277
v -0.73000 0.08000 -1.81277
v -0.73000 0.20000 -1.81277
v -1.19000 0.20000 -1.81277
v -1.19000 0.08000 -1.51277
v -0.73000 0.08000 -1.51277
v -0.73000 0.20000 -1.51277
v -1.19000 0.20000 -1.51277
v 0.39392 1.42000 -0.44229
v 0.75727 0.82000 -1.12163
v 0.33741 1.35307 -0.41470
v 0.71253 0.76701 -1.09979
v 0.25312 1.32534 -0.43842
v 0.64580 0.74506 -1.11857
v 0.19044 1.35307 -0.49955
v 0.59618 0.76701 -1.16696
v 0.18608 1.42000 -0.56229
v 0.59273 0.82000 -1.21663
v 0.24259 1.48693 -0.58989
v 0.63747 0.87299 -1.23848
v 0.32688 1.51466 -0.56617
v 0.70420 0.89494 -1.21970
v 0.38956 1.48693 -0.50504
v 0.75382 0.87299 -1.17130
v 0.29000 1.42000 -0.50229
v 0.67500 0.82000 -1.16913
v 0.76160 0.82000 -1.11913
v 1.02495 0.14000 -1.62527
v 0.70914 0.77458 -1.08685
v 0.98561 0.10593 -1.60105
v 0.63668 0.75576 -1.10276
v 0.93126 0.09182 -1.61299
v 0.58667 0.77458 -1.15756
v 0.89375 0.10593 -1.65409
v 0.58840 0.82000 -1.21913
v 0.89505 0.14000 -1.70027
v 0.64086 0.86542 -1.25142
v 0.93439 0.17407 -1.72448
v 0.71332 0.88424 -1.23550
v 0.98874 0.18818 -1.71255
v 0.76333 0.86542 -1.18071
v 1.02625 0.17407 -1.67145
v 0.67500 0.82000 -1.16913
v 0.96000 0.14000 -1.66277
v 0.73000 0.08000 -1.81277
v 1.19000 0.08000 -1.81277
v 1.19000 0.20000 -1.81277
v 0.73000 0.20000 -1.81277
v 0.73000 0.08000 -1.51277
v 1.19000 0.08000 -1.51277
v 1.19000 0.20000 -1.51277
v 0.73000 0.20000 -1.51277
v 0.60097 1.82000 0.29058
v 1.03029 2.18000 0.32394
v 0.68052 1.74779 0.24286
v 1.03426 2.17639 0.32155
v 0.69097 1.77537 0.12906
v 1.03479 2.17777 0.31586
v 0.61789 1.86463 0.10645
v 1.03113 2.18223 0.31473
v 0.56226 1.89221 0.20627
v 1.02835 2.18361 0.31972
v 0.63052 1.82000 0.19504
v 1.03176 2.18000 0.31916
v 0.04884 1.82000 0.66574
v 0.23460 2.18000 1.05422
v 0.12994 1.74779 0.71078
v 0.23866 2.17639 1.05647
v 0.23372 1.77537 0.66293
v 0.24385 2.17777 1.05408
v 0.21675 1.86463 0.58833
v 0.24300 2.18223 1.05035
v 0.10249 1.89221 0.59007
v 0.23729 2.18361 1.05044
v 0.14635 1.82000 0.64357
v 0.23948 2.18000 1.05311
v -0.55213 1.82000 0.37517
v -0.79568 2.18000 0.73028
v -0.55058 1.74779 0.46792
v -0.79560 2.17639 0.73492
v -0.45726 1.77537 0.53387
v -0.79094 2.17777 0.73822
v -0.40113 1.86463 0.48188
v -0.78813 2.18223 0.73562
v -0.45977 1.89221 0.38379
v -0.79106 2.18361 0.73072
v -0.48417 1.82000 0.44853
v -0.79228 2.18000 0.73395
v -0.60097 1.82000 -0.29058
v -1.03029 2.18000 -0.32394
v -0.68052 1.74779 -0.24286
v -1.03426 2.17639 -0.32155
v -0.69097 1.77537 -0.12906
v -1.03479 2.17777 -0.31586
v -0.61789 1.86463 -0.10645
v -1.03113 2.18223 -0.31473
v -0.56226 1.89221 -0.20627
v -1.02835 2.18361 -0.31972
v -0.63052 1.82000 -0.19504
v -1.03176 2.18000 -0.31916
v -0.04884 1.82000 -0.66574
v -0.23460 2.18000 -1.05422
v -0.12994 1.74779 -0.71078
v -0.23866 2.17639 -1.05647
v -0.23372 1.77537 -0.66293
v -0.24385 2.17777 -1.05408
v -0.21675 1.86463 -0.58833
v -0.24300 2.18223 -1.05035
v -0.10249 1.89221 -0.59007
v -0.23729 2.18361 -1.05044
v -0.14635 1.82000 -0.64357
v -0.23948 2.18000 -1.05311
v 0.55213 1.82000 -0.37517
v 0.79568 2.18000 -0.73028
v 0.55058 1.74779 -0.46792
v 0.79560 2.17639 -0.73492
v 0.45726 1.77537 -0.53387
v 0.79094 2.17777 -0.73822
v 0.40113 1.86463 -0.48188
v 0.78813 2.18223 -0.73562
v 0.45977 1.89221 -0.38379
v 0.79106 2.18361 -0.73072
v 0.48417 1.82000 -0.44853
v 0.79228 2.18000 -0.73395
usemtl ROCK
f 1 3 5
f 1 5 4
f 1 4 6
f 1 6 3
f 2 5 3
f 2 4 5
f 2 6 4
f 2 3 6
usemtl METAL
f 7 8 9
f 7 9 10
f 12 11 14
f 12 14 13
f 11 7 10
f 11 10 14
f 8 12 13
f 8 13 9
f 10 9 13
f 10 13 14
f 11 12 8
f 11 8 7
usemtl WARM
f 15 17 19
f 15 19 18
f 15 18 20
f 15 20 17
f 16 19 17
f 16 18 19
f 16 20 18
f 16 17 20
usemtl ICE
f 21 23 24
f 21 24 22
f 33 23 21
f 34 22 24
f 23 25 26
f 23 26 24
f 33 25 23
f 34 24 26
f 25 27 28
f 25 28 26
f 33 27 25
f 34 26 28
f 27 29 30
f 27 30 28
f 33 29 27
f 34 28 30
f 29 31 32
f 29 32 30
f 33 31 29
f 34 30 32
f 31 21 22
f 31 22 32
f 33 21 31
f 34 32 22
f 35 37 38
f 35 38 36
f 47 37 35
f 48 36 38
f 37 39 40
f 37 40 38
f 47 39 37
f 48 38 40
f 39 41 42
f 39 42 40
f 47 41 39
f 48 40 42
f 41 43 44
f 41 44 42
f 47 43 41
f 48 42 44
f 43 45 46
f 43 46 44
f 47 45 43
f 48 44 46
f 45 35 36
f 45 36 46
f 47 35 45
f 48 46 36
f 49 51 52
f 49 52 50
f 61 51 49
f 62 50 52
f 51 53 54
f 51 54 52
f 61 53 51
f 62 52 54
f 53 55 56
f 53 56 54
f 61 55 53
f 62 54 56
f 55 57 58
f 55 58 56
f 61 57 55
f 62 56 58
f 57 59 60
f 57 60 58
f 61 59 57
f 62 58 60
f 59 49 50
f 59 50 60
f 61 49 59
f 62 60 50
f 63 65 66
f 63 66 64
f 75 65 63
f 76 64 66
f 65 67 68
f 65 68 66
f 75 67 65
f 76 66 68
f 67 69 70
f 67 70 68
f 75 69 67
f 76 68 70
f 69 71 72
f 69 72 70
f 75 71 69
f 76 70 72
f 71 73 74
f 71 74 72
f 75 73 71
f 76 72 74
f 73 63 64
f 73 64 74
f 75 63 73
f 76 74 64
f 77 79 80
f 77 80 78
f 89 79 77
f 90 78 80
f 79 81 82
f 79 82 80
f 89 81 79
f 90 80 82
f 81 83 84
f 81 84 82
f 89 83 81
f 90 82 84
f 83 85 86
f 83 86 84
f 89 85 83
f 90 84 86
f 85 87 88
f 85 88 86
f 89 87 85
f 90 86 88
f 87 77 78
f 87 78 88
f 89 77 87
f 90 88 78
f 91 93 94
f 91 94 92
f 103 93 91
f 104 92 94
f 93 95 96
f 93 96 94
f 103 95 93
f 104 94 96
f 95 97 98
f 95 98 96
f 103 97 95
f 104 96 98
f 97 99 100
f 97 100 98
f 103 99 97
f 104 98 100
f 99 101 102
f 99 102 100
f 103 101 99
f 104 100 102
f 101 91 92
f 101 92 102
f 103 91 101
f 104 102 92
f 105 107 108
f 105 108 106
f 117 107 105
f 118 106 108
f 107 109 110
f 107 110 108
f 117 109 107
f 118 108 110
f 109 111 112
f 109 112 110
f 117 111 109
f 118 110 112
f 111 113 114
f 111 114 112
f 117 113 111
f 118 112 114
f 113 115 116
f 113 116 114
f 117 115 113
f 118 114 116
f 115 105 106
f 115 106 116
f 117 105 115
f 118 116 106
usemtl METAL
f 119 121 122
f 119 122 120
f 135 121 119
f 136 120 122
f 121 123 124
f 121 124 122
f 135 123 121
f 136 122 124
f 123 125 126
f 123 126 124
f 135 125 123
f 136 124 126
f 125 127 128
f 125 128 126
f 135 127 125
f 136 126 128
f 127 129 130
f 127 130 128
f 135 129 127
f 136 128 130
f 129 131 132
f 129 132 130
f 135 131 129
f 136 130 132
f 131 133 134
f 131 134 132
f 135 133 131
f 136 132 134
f 133 119 120
f 133 120 134
f 135 119 133
f 136 134 120
f 137 139 140
f 137 140 138
f 153 139 137
f 154 138 140
f 139 141 142
f 139 142 140
f 153 141 139
f 154 140 142
f 141 143 144
f 141 144 142
f 153 143 141
f 154 142 144
f 143 145 146
f 143 146 144
f 153 145 143
f 154 144 146
f 145 147 148
f 145 148 146
f 153 147 145
f 154 146 148
f 147 149 150
f 147 150 148
f 153 149 147
f 154 148 150
f 149 151 152
f 149 152 150
f 153 151 149
f 154 150 152
f 151 137 138
f 151 138 152
f 153 137 151
f 154 152 138
usemtl ROCK
f 155 156 157
f 155 157 158
f 160 159 162
f 160 162 161
f 159 155 158
f 159 158 162
f 156 160 161
f 156 161 157
f 158 157 161
f 158 161 162
f 159 160 156
f 159 156 155
usemtl METAL
f 163 165 166
f 163 166 164
f 179 165 163
f 180 164 166
f 165 167 168
f 165 168 166
f 179 167 165
f 180 166 168
f 167 169 170
f 167 170 168
f 179 169 167
f 180 168 170
f 169 171 172
f 169 172 170
f 179 171 169
f 180 170 172
f 171 173 174
f 171 174 172
f 179 173 171
f 180 172 174
f 173 175 176
f 173 176 174
f 179 175 173
f 180 174 176
f 175 177 178
f 175 178 176
f 179 177 175
f 180 176 178
f 177 163 164
f 177 164 178
f 179 163 177
f 180 178 164
f 181 183 184
f 181 184 182
f 197 183 181
f 198 182 184
f 183 185 186
f 183 186 184
f 197 185 183
f 198 184 186
f 185 187 188
f 185 188 186
f 197 187 185
f 198 186 188
f 187 189 190
f 187 190 188
f 197 189 187
f 198 188 190
f 189 191 192
f 189 192 190
f 197 191 189
f 198 190 192
f 191 193 194
f 191 194 192
f 197 193 191
f 198 192 194
f 193 195 196
f 193 196 194
f 197 195 193
f 198 194 196
f 195 181 182
f 195 182 196
f 197 181 195
f 198 196 182
usemtl ROCK
f 199 200 201
f 199 201 202
f 204 203 206
f 204 206 205
f 203 199 202
f 203 202 206
f 200 204 205
f 200 205 201
f 202 201 205
f 202 205 206
f 203 204 200
f 203 200 199
usemtl METAL
f 207 209 210
f 207 210 208
f 223 209 207
f 224 208 210
f 209 211 212
f 209 212 210
f 223 211 209
f 224 210 212
f 211 213 214
f 211 214 212
f 223 213 211
f 224 212 214
f 213 215 216
f 213 216 214
f 223 215 213
f 224 214 216
f 215 217 218
f 215 218 216
f 223 217 215
f 224 216 218
f 217 219 220
f 217 220 218
f 223 219 217
f 224 218 220
f 219 221 222
f 219 222 220
f 223 221 219
f 224 220 222
f 221 207 208
f 221 208 222
f 223 207 221
f 224 222 208
f 225 227 228
f 225 228 226
f 241 227 225
f 242 226 228
f 227 229 230
f 227 230 228
f 241 229 227
f 242 228 230
f 229 231 232
f 229 232 230
f 241 231 229
f 242 230 232
f 231 233 234
f 231 234 232
f 241 233 231
f 242 232 234
f 233 235 236
f 233 236 234
f 241 235 233
f 242 234 236
f 235 237 238
f 235 238 236
f 241 237 235
f 242 236 238
f 237 239 240
f 237 240 238
f 241 239 237
f 242 238 240
f 239 225 226
f 239 226 240
f 241 225 239
f 242 240 226
usemtl ROCK
f 243 244 245
f 243 245 246
f 248 247 250
f 248 250 249
f 247 243 246
f 247 246 250
f 244 248 249
f 244 249 245
f 246 245 249
f 246 249 250
f 247 248 244
f 247 244 243
usemtl METAL
f 251 253 254
f 251 254 252
f 267 253 251
f 268 252 254
f 253 255 256
f 253 256 254
f 267 255 253
f 268 254 256
f 255 257 258
f 255 258 256
f 267 257 255
f 268 256 258
f 257 259 260
f 257 260 258
f 267 259 257
f 268 258 260
f 259 261 262
f 259 262 260
f 267 261 259
f 268 260 262
f 261 263 264
f 261 264 262
f 267 263 261
f 268 262 264
f 263 265 266
f 263 266 264
f 267 265 263
f 268 264 266
f 265 251 252
f 265 252 266
f 267 251 265
f 268 266 252
f 269 271 272
f 269 272 270
f 285 271 269
f 286 270 272
f 271 273 274
f 271 274 272
f 285 273 271
f 286 272 274
f 273 275 276
f 273 276 274
f 285 275 273
f 286 274 276
f 275 277 278
f 275 278 276
f 285 277 275
f 286 276 278
f 277 279 280
f 277 280 278
f 285 279 277
f 286 278 280
f 279 281 282
f 279 282 280
f 285 281 279
f 286 280 282
f 281 283 284
f 281 284 282
f 285 283 281
f 286 282 284
f 283 269 270
f 283 270 284
f 285 269 283
f 286 284 270
usemtl ROCK
f 287 288 289
f 287 289 290
f 292 291 294
f 292 294 293
f 291 287 290
f 291 290 294
f 288 292 293
f 288 293 289
f 290 289 293
f 290 293 294
f 291 292 288
f 291 288 287
usemtl METAL
f 295 297 298
f 295 298 296
f 311 297 295
f 312 296 298
f 297 299 300
f 297 300 298
f 311 299 297
f 312 298 300
f 299 301 302
f 299 302 300
f 311 301 299
f 312 300 302
f 301 303 304
f 301 304 302
f 311 303 301
f 312 302 304
f 303 305 306
f 303 306 304
f 311 305 303
f 312 304 306
f 305 307 308
f 305 308 306
f 311 307 305
f 312 306 308
f 307 309 310
f 307 310 308
f 311 309 307
f 312 308 310
f 309 295 296
f 309 296 310
f 311 295 309
f 312 310 296
f 313 315 316
f 313 316 314
f 329 315 313
f 330 314 316
f 315 317 318
f 315 318 316
f 329 317 315
f 330 316 318
f 317 319 320
f 317 320 318
f 329 319 317
f 330 318 320
f 319 321 322
f 319 322 320
f 329 321 319
f 330 320 322
f 321 323 324
f 321 324 322
f 329 323 321
f 330 322 324
f 323 325 326
f 323 326 324
f 329 325 323
f 330 324 326
f 325 327 328
f 325 328 326
f 329 327 325
f 330 326 328
f 327 313 314
f 327 314 328
f 329 313 327
f 330 328 314
usemtl ROCK
f 331 332 333
f 331 333 334
f 336 335 338
f 336 338 337
f 335 331 334
f 335 334 338
f 332 336 337
f 332 337 333
f 334 333 337
f 334 337 338
f 335 336 332
f 335 332 331
usemtl METAL
f 339 341 342
f 339 342 340
f 355 341 339
f 356 340 342
f 341 343 344
f 341 344 342
f 355 343 341
f 356 342 344
f 343 345 346
f 343 346 344
f 355 345 343
f 356 344 346
f 345 347 348
f 345 348 346
f 355 347 345
f 356 346 348
f 347 349 350
f 347 350 348
f 355 349 347
f 356 348 350
f 349 351 352
f 349 352 350
f 355 351 349
f 356 350 352
f 351 353 354
f 351 354 352
f 355 353 351
f 356 352 354
f 353 339 340
f 353 340 354
f 355 339 353
f 356 354 340
f 357 359 360
f 357 360 358
f 373 359 357
f 374 358 360
f 359 361 362
f 359 362 360
f 373 361 359
f 374 360 362
f 361 363 364
f 361 364 362
f 373 363 361
f 374 362 364
f 363 365 366
f 363 366 364
f 373 365 363
f 374 364 366
f 365 367 368
f 365 368 366
f 373 367 365
f 374 366 368
f 367 369 370
f 367 370 368
f 373 369 367
f 374 368 370
f 369 371 372
f 369 372 370
f 373 371 369
f 374 370 372
f 371 357 358
f 371 358 372
f 373 357 371
f 374 372 358
usemtl ROCK
f 375 376 377
f 375 377 378
f 380 379 382
f 380 382 381
f 379 375 378
f 379 378 382
f 376 380 381
f 376 381 377
f 378 377 381
f 378 381 382
f 379 380 376
f 379 376 375
usemtl ICE
f 383 385 386
f 383 386 384
f 393 385 383
f 394 384 386
f 385 387 388
f 385 388 386
f 393 387 385
f 394 386 388
f 387 389 390
f 387 390 388
f 393 389 387
f 394 388 390
f 389 391 392
f 389 392 390
f 393 391 389
f 394 390 392
f 391 383 384
f 391 384 392
f 393 383 391
f 394 392 384
f 395 397 398
f 395 398 396
f 405 397 395
f 406 396 398
f 397 399 400
f 397 400 398
f 405 399 397
f 406 398 400
f 399 401 402
f 399 402 400
f 405 401 399
f 406 400 402
f 401 403 404
f 401 404 402
f 405 403 401
f 406 402 404
f 403 395 396
f 403 396 404
f 405 395 403
f 406 404 396
f 407 409 410
f 407 410 408
f 417 409 407
f 418 408 410
f 409 411 412
f 409 412 410
f 417 411 409
f 418 410 412
f 411 413 414
f 411 414 412
f 417 413 411
f 418 412 414
f 413 415 416
f 413 416 414
f 417 415 413
f 418 414 416
f 415 407 408
f 415 408 416
f 417 407 415
f 418 416 408
f 419 421 422
f 419 422 420
f 429 421 419
f 430 420 422
f 421 423 424
f 421 424 422
f 429 423 421
f 430 422 424
f 423 425 426
f 423 426 424
f 429 425 423
f 430 424 426
f 425 427 428
f 425 428 426
f 429 427 425
f 430 426 428
f 427 419 420
f 427 420 428
f 429 419 427
f 430 428 420
f 431 433 434
f 431 434 432
f 441 433 431
f 442 432 434
f 433 435 436
f 433 436 434
f 441 435 433
f 442 434 436
f 435 437 438
f 435 438 436
f 441 437 435
f 442 436 438
f 437 439 440
f 437 440 438
f 441 439 437
f 442 438 440
f 439 431 432
f 439 432 440
f 441 431 439
f 442 440 432
f 443 445 446
f 443 446 444
f 453 445 443
f 454 444 446
f 445 447 448
f 445 448 446
f 453 447 445
f 454 446 448
f 447 449 450
f 447 450 448
f 453 449 447
f 454 448 450
f 449 451 452
f 449 452 450
f 453 451 449
f 454 450 452
f 451 443 444
f 451 444 452
f 453 443 451
f 454 452 444
